<?xml version="1.0" encoding="UTF-8" standalone="no"?>
<svg width="33px" height="36px" viewBox="0 0 33 36" version="1.1" xmlns="http://www.w3.org/2000/svg" xmlns:xlink="http://www.w3.org/1999/xlink" xmlns:sketch="http://www.bohemiancoding.com/sketch/ns">
    <!-- Generator: Sketch 3.4.2 (15855) - http://www.bohemiancoding.com/sketch -->
    <title>crane1</title>
    <desc>Created with Sketch.</desc>
    <defs></defs>
    <g id="Page-1" stroke="none" stroke-width="1" fill="none" fill-rule="evenodd" sketch:type="MSPage">
        <g id="crane1" sketch:type="MSLayerGroup">
            <g id="XMLID_4038_" sketch:type="MSShapeGroup">
                <g id="XMLID_4084_">
                    <g id="XMLID_4306_" transform="translate(23.000000, 0.000000)" fill="#AAA9A9">
                        <g id="XMLID_4307_">
                            <path d="M4.4,9.2 L0.6,6.3 L5,0.5 C5.2,0.3 5.4,0.2 5.6,0.4 L5.6,0.4 C5.8,0.6 5.8,0.9 5.6,1.1 L2,6 L4.1,7.5 L8.6,1.9 C8.8,1.7 9,1.6 9.2,1.8 L9.2,1.8 C9.4,2 9.4,2.3 9.2,2.5 L4.4,9.2 L4.4,9.2 Z" id="XMLID_4308_"></path>
                        </g>
                    </g>
                    <g id="XMLID_4085_" transform="translate(0.000000, 3.000000)">
                        <g id="XMLID_4299_" transform="translate(20.000000, 0.000000)">
                            <g id="XMLID_4304_" transform="translate(0.000000, 6.000000)" fill="#AAA9A9">
                                <path d="M4.5,4.7 C5.6,3.2 5,2.3 4.5,1.7 C4.5,1.7 4.9,1.2 4.9,1.1 L3.6,0.1 L3.1,0.7 C3.1,0.7 2.6,1.3 2.8,1.6 C3.4,2.3 3.7,3.2 3.2,3.9 C2.7,4.7 2,4.6 1.3,4.1 C0.6,3.6 0.9,2.3 0.6,2.2 C0.5,2.2 0.6,2.4 0.5,2.6 C0.3,3.1 0.1,4.2 1,4.9 C2.4,5.9 3.7,5.7 4.5,4.7 L4.5,4.7 Z" id="XMLID_4305_"></path>
                            </g>
                            <g id="XMLID_4302_" transform="translate(1.000000, 0.000000)" fill="#E27228">
                                <path d="M8.7,4 C8.7,4 4.5,0.8 4,0.5 C3.7,0.3 3.1,0.2 2.6,0.8 C2.6,0.8 1,4.2 1,4.4 C0.9,4.7 1,5.1 1.3,5.3 L5.1,8.2 C5.5,8.5 5.9,8.3 6.2,8 C6.6,7.7 8.3,6.2 8.9,5.6 C9.3,5.1 9.2,4.5 8.7,4 L8.7,4 Z" id="XMLID_4303_"></path>
                            </g>
                            <g id="XMLID_4300_" transform="translate(2.000000, 0.000000)" fill="#F4C44B">
                                <path d="M7.3,3.8 C7.3,3.8 3.4,0.8 2.9,0.5 C2.6,0.3 2.1,0.2 1.6,0.7 C1.6,0.7 0.1,3.9 0.1,4.1 C3.42087469e-15,4.4 0.1,4.7 0.3,4.9 L3.9,7.6 C4.2,7.9 4.6,7.7 5,7.4 C5.4,7.1 6.9,5.7 7.5,5.1 C7.9,4.8 7.9,4.2 7.3,3.8 L7.3,3.8 Z" id="XMLID_4301_"></path>
                            </g>
                        </g>
                        <path d="M27,5 C26.5,5.6 25.6,5.8 25,5.3 C24.4,4.8 24.2,3.9 24.7,3.3 C25.2,2.7 26.1,2.5 26.7,3 C27.3,3.5 27.5,4.4 27,5 L27,5 Z" id="XMLID_4298_" fill="#666666"></path>
                        <g id="XMLID_4086_" transform="translate(0.000000, 7.000000)">
                            <g id="XMLID_4296_" fill="#F2C31B">
                                <rect id="XMLID_4297_" transform="translate(14.549025, 13.179625) rotate(36.955841) translate(-14.549025, -13.179625) " x="0.999009756" y="8.12961932" width="27.1000305" height="10.1000114"></rect>
                            </g>
                            <g id="XMLID_4098_" transform="translate(2.000000, 2.000000)">
                                <g id="XMLID_4247_">
                                    <g id="XMLID_4279_" fill="#B06223">
                                        <rect id="XMLID_4295_" transform="translate(3.047315, 4.160980) rotate(36.955841) translate(-3.047315, -4.160980) " x="2.69731461" y="-0.039024725" width="0.700000787" height="8.40000945"></rect>
                                    </g>
                                    <g id="XMLID_4277_" transform="translate(0.000000, 1.000000)" fill="#E48124">
                                        <rect id="XMLID_4278_" transform="translate(3.160280, 3.454735) rotate(36.955841) translate(-3.160280, -3.454735) " x="2.96027978" y="-0.595269556" width="0.40000045" height="8.10000911"></rect>
                                    </g>
                                    <g id="XMLID_4275_" transform="translate(1.000000, 1.000000)" fill="#B06223">
                                        <rect id="XMLID_4276_" transform="translate(3.449755, 4.192060) rotate(36.955841) translate(-3.449755, -4.192060) " x="3.09975461" y="-0.007944725" width="0.700000787" height="8.40000945"></rect>
                                    </g>
                                    <g id="XMLID_4273_" transform="translate(1.000000, 2.000000)" fill="#E48124">
                                        <rect id="XMLID_4274_" transform="translate(3.482810, 3.425595) rotate(36.955841) translate(-3.482810, -3.425595) " x="3.28280978" y="-0.624409556" width="0.40000045" height="8.10000911"></rect>
                                    </g>
                                    <g id="XMLID_4271_" transform="translate(3.000000, 2.000000)" fill="#B06223">
                                        <rect id="XMLID_4272_" transform="translate(2.852095, 4.223240) rotate(36.955841) translate(-2.852095, -4.223240) " x="2.50209461" y="0.023235275" width="0.700000787" height="8.40000945"></rect>
                                    </g>
                                    <g id="XMLID_4269_" transform="translate(3.000000, 3.000000)" fill="#E48124">
                                        <rect id="XMLID_4270_" transform="translate(2.885250, 3.456675) rotate(36.955841) translate(-2.885250, -3.456675) " x="2.68524978" y="-0.593329556" width="0.40000045" height="8.10000911"></rect>
                                    </g>
                                    <g id="XMLID_4267_" transform="translate(4.000000, 3.000000)" fill="#B06223">
                                        <rect id="XMLID_4268_" transform="translate(3.162525, 4.202500) rotate(36.955841) translate(-3.162525, -4.202500) " x="2.81252461" y="0.002495275" width="0.700000787" height="8.40000945"></rect>
                                    </g>
                                    <g id="XMLID_4265_" transform="translate(4.000000, 4.000000)" fill="#E48124">
                                        <rect id="XMLID_4266_" transform="translate(3.195580, 3.435935) rotate(36.955841) translate(-3.195580, -3.435935) " x="2.99557978" y="-0.614069556" width="0.40000045" height="8.10000911"></rect>
                                    </g>
                                    <g id="XMLID_4262_" transform="translate(5.000000, 4.000000)" fill="#B06223">
                                        <rect id="XMLID_4263_" transform="translate(3.513845, 4.307190) rotate(36.955841) translate(-3.513845, -4.307190) " x="3.16384461" y="0.107185275" width="0.700000787" height="8.40000945"></rect>
                                    </g>
                                    <g id="XMLID_4260_" transform="translate(6.000000, 5.000000)" fill="#E48124">
                                        <rect id="XMLID_4261_" transform="translate(2.606920, 3.460915) rotate(36.955841) translate(-2.606920, -3.460915) " x="2.40691978" y="-0.589089556" width="0.40000045" height="8.10000911"></rect>
                                    </g>
                                    <g id="XMLID_4258_" transform="translate(7.000000, 5.000000)" fill="#B06223">
                                        <rect id="XMLID_4259_" transform="translate(2.824075, 4.286550) rotate(36.955841) translate(-2.824075, -4.286550) " x="2.47407461" y="0.086545275" width="0.700000787" height="8.40000945"></rect>
                                    </g>
                                    <g id="XMLID_4256_" transform="translate(7.000000, 6.000000)" fill="#E48124">
                                        <rect id="XMLID_4257_" transform="translate(2.917350, 3.440175) rotate(36.955841) translate(-2.917350, -3.440175) " x="2.71734978" y="-0.609829556" width="0.40000045" height="8.10000911"></rect>
                                    </g>
                                    <g id="XMLID_4254_" transform="translate(8.000000, 6.000000)" fill="#B06223">
                                        <rect id="XMLID_4255_" transform="translate(3.210615, 4.294430) rotate(36.955841) translate(-3.210615, -4.294430) " x="2.86061461" y="0.094425275" width="0.700000787" height="8.40000945"></rect>
                                    </g>
                                    <g id="XMLID_4252_" transform="translate(8.000000, 7.000000)" fill="#E48124">
                                        <rect id="XMLID_4253_" transform="translate(3.303590, 3.448055) rotate(36.955841) translate(-3.303590, -3.448055) " x="3.10358978" y="-0.601949556" width="0.40000045" height="8.10000911"></rect>
                                    </g>
                                    <g id="XMLID_4250_" transform="translate(9.000000, 7.000000)" fill="#B06223">
                                        <rect id="XMLID_4251_" transform="translate(3.548845, 4.288690) rotate(36.955841) translate(-3.548845, -4.288690) " x="3.19884461" y="0.088685275" width="0.700000787" height="8.40000945"></rect>
                                    </g>
                                    <g id="XMLID_4248_" transform="translate(9.000000, 8.000000)" fill="#E48124">
                                        <rect id="XMLID_4249_" transform="translate(3.581900, 3.522225) rotate(36.955841) translate(-3.581900, -3.522225) " x="3.38189978" y="-0.527779556" width="0.40000045" height="8.10000911"></rect>
                                    </g>
                                </g>
                                <g id="XMLID_4099_" transform="translate(11.000000, 8.000000)">
                                    <g id="XMLID_4245_" fill="#B06223">
                                        <rect id="XMLID_4246_" transform="translate(2.935185, 4.296770) rotate(36.955841) translate(-2.935185, -4.296770) " x="2.58518461" y="0.096765275" width="0.700000787" height="8.40000945"></rect>
                                    </g>
                                    <g id="XMLID_4243_" transform="translate(0.000000, 1.000000)" fill="#E48124">
                                        <rect id="XMLID_4244_" transform="translate(2.968040, 3.530205) rotate(36.955841) translate(-2.968040, -3.530205) " x="2.76803978" y="-0.519799556" width="0.40000045" height="8.10000911"></rect>
                                    </g>
                                    <g id="XMLID_4241_" transform="translate(1.000000, 1.000000)" fill="#B06223">
                                        <rect id="XMLID_4242_" transform="translate(3.213295, 4.370840) rotate(36.955841) translate(-3.213295, -4.370840) " x="2.86329461" y="0.170835275" width="0.700000787" height="8.40000945"></rect>
                                    </g>
                                    <g id="XMLID_4239_" transform="translate(1.000000, 2.000000)" fill="#E48124">
                                        <rect id="XMLID_4240_" transform="translate(3.306470, 3.524465) rotate(36.955841) translate(-3.306470, -3.524465) " x="3.10646978" y="-0.525539556" width="0.40000045" height="8.10000911"></rect>
                                    </g>
                                    <g id="XMLID_4237_" transform="translate(2.000000, 2.000000)" fill="#B06223">
                                        <rect id="XMLID_4238_" transform="translate(3.659755, 4.299010) rotate(36.955841) translate(-3.659755, -4.299010) " x="3.30975461" y="0.099005275" width="0.700000787" height="8.40000945"></rect>
                                    </g>
                                    <g id="XMLID_4235_" transform="translate(3.000000, 3.000000)" fill="#E48124">
                                        <rect id="XMLID_4236_" transform="translate(2.692710, 3.532345) rotate(36.955841) translate(-2.692710, -3.532345) " x="2.49270978" y="-0.517659556" width="0.40000045" height="8.10000911"></rect>
                                    </g>
                                    <g id="XMLID_4233_" transform="translate(4.000000, 3.000000)" fill="#B06223">
                                        <rect id="XMLID_4234_" transform="translate(2.916065, 4.388080) rotate(36.955841) translate(-2.916065, -4.388080) " x="2.56606461" y="0.188075275" width="0.700000787" height="8.40000945"></rect>
                                    </g>
                                    <g id="XMLID_4231_" transform="translate(4.000000, 4.000000)" fill="#E48124">
                                        <rect id="XMLID_4232_" transform="translate(3.009240, 3.541705) rotate(36.955841) translate(-3.009240, -3.541705) " x="2.80923978" y="-0.508299556" width="0.40000045" height="8.10000911"></rect>
                                    </g>
                                    <g id="XMLID_4229_" transform="translate(5.000000, 4.000000)" fill="#B06223">
                                        <rect id="XMLID_4230_" transform="translate(3.314505, 4.387760) rotate(36.955841) translate(-3.314505, -4.387760) " x="2.96450461" y="0.187755275" width="0.700000787" height="8.40000945"></rect>
                                    </g>
                                    <g id="XMLID_4227_" transform="translate(5.000000, 5.000000)" fill="#E48124">
                                        <rect id="XMLID_4228_" transform="translate(3.407580, 3.541285) rotate(36.955841) translate(-3.407580, -3.541285) " x="3.20757978" y="-0.508719556" width="0.40000045" height="8.10000911"></rect>
                                    </g>
                                    <g id="XMLID_4106_" transform="translate(6.000000, 5.000000)" fill="#B06223">
                                        <rect id="XMLID_4107_" transform="translate(3.652835, 4.381920) rotate(36.955841) translate(-3.652835, -4.381920) " x="3.30283461" y="0.181915275" width="0.700000787" height="8.40000945"></rect>
                                    </g>
                                    <g id="XMLID_4104_" transform="translate(7.000000, 6.000000)" fill="#E48124">
                                        <rect id="XMLID_4105_" transform="translate(2.685790, 3.615555) rotate(36.955841) translate(-2.685790, -3.615555) " x="2.48578978" y="-0.434449556" width="0.40000045" height="8.10000911"></rect>
                                    </g>
                                    <g id="XMLID_4102_" transform="translate(8.000000, 6.000000)" fill="#B06223">
                                        <rect id="XMLID_4103_" transform="translate(3.043175, 4.421300) rotate(36.955841) translate(-3.043175, -4.421300) " x="2.69317461" y="0.221295275" width="0.700000787" height="8.40000945"></rect>
                                    </g>
                                    <g id="XMLID_4100_" transform="translate(8.000000, 7.000000)" fill="#E48124">
                                        <rect id="XMLID_4101_" transform="translate(3.076330, 3.654835) rotate(36.955841) translate(-3.076330, -3.654835) " x="2.87632978" y="-0.395169556" width="0.40000045" height="8.10000911"></rect>
                                    </g>
                                </g>
                            </g>
                            <g id="XMLID_4096_" transform="translate(6.000000, 1.000000)" fill="#E48124">
                                <rect id="XMLID_4097_" transform="translate(11.437035, 8.315470) rotate(36.955841) translate(-11.437035, -8.315470) " x="-2.11298024" y="8.11546978" width="27.1000305" height="0.40000045"></rect>
                            </g>
                            <g id="XMLID_4092_" transform="translate(7.000000, 1.000000)" fill="#405A74">
                                <g id="XMLID_4093_">
                                    <path d="M15.4,2.4 C15.3,2.3 15.3,2.2 15.2,2.2 L15.2,2.2 C14.6,1.8 6,0.8 0.4,0.2 L0.4,5.68434189e-14 C1.8,0.1 14.5,1.5 15.3,2 L15.3,2 C15.4,2 15.5,2.2 15.6,2.4" id="XMLID_4095_"></path>
                                    <path d="M16.2,3.5 C17.8,6.8 20.9,14.6 21.4,15.7 L21.2,15.8 C19.6,11.7 17.2,6.1 16,3.5" id="XMLID_4094_"></path>
                                </g>
                            </g>
                            <g id="XMLID_4089_" transform="translate(6.000000, 0.000000)" fill="#304457">
                                <rect id="XMLID_4090_" transform="translate(1.320785, 1.277895) rotate(36.955841) translate(-1.320785, -1.277895) " x="1.07078472" y="0.727894381" width="0.500000562" height="1.10000124"></rect>
                            </g>
                            <g id="XMLID_4087_" transform="translate(27.000000, 16.000000)" fill="#304457">
                                <rect id="XMLID_4088_" transform="translate(1.103925, 0.957225) rotate(36.955841) translate(-1.103925, -0.957225) " x="0.853924719" y="0.407224381" width="0.500000562" height="1.10000124"></rect>
                            </g>
                        </g>
                    </g>
                </g>
            </g>
        </g>
    </g>
</svg>