<?xml version="1.0" encoding="UTF-8" standalone="no"?>
<svg width="42px" height="31px" viewBox="0 0 42 31" version="1.1" xmlns="http://www.w3.org/2000/svg" xmlns:xlink="http://www.w3.org/1999/xlink" xmlns:sketch="http://www.bohemiancoding.com/sketch/ns">
    <!-- Generator: Sketch 3.4.2 (15855) - http://www.bohemiancoding.com/sketch -->
    <title>Oval</title>
    <desc>Created with Sketch.</desc>
    <defs></defs>
    <g id="Page-1" stroke="none" stroke-width="1" fill="none" fill-rule="evenodd" sketch:type="MSPage">
        <g id="logo-shurenyun-ico" sketch:type="MSLayerGroup" fill="#000000">
            <g id="Page-1" sketch:type="MSShapeGroup">
                <g id="logo-shurenyun-ico">
                    <g id="Page-1">
                        <g id="dataman-logo">
                            <path d="M33.4,30.3 C38.0659673,30.1368119 41.8,26.304471 41.8,21.6 C41.8,18.023704 39.6421391,14.9514035 36.5573983,13.6140792 C36.5856083,13.2797964 36.6,12.9415789 36.6,12.6 C36.6,6.02781148 31.2721885,0.7 24.7,0.7 C20.8080419,0.7 17.3524672,2.56837973 15.1812841,5.45713102 C14.2114884,4.91133506 13.0921023,4.6 11.9,4.6 C8.19969218,4.6 5.2,7.59969218 5.2,11.3 C5.2,12.0641384 5.32792194,12.7983991 5.56351905,13.4825352 C2.30855925,14.7410581 0,17.9009326 0,21.6 C0,26.4048773 3.89512268,30.3 8.7,30.3 C8.80040635,30.3 8.90041543,30.2982991 9,30.2949245 L14.6,30.3 L14.6,26.2667617 C11.636298,24.1639419 9.7,20.7053899 9.7,16.8 C9.7,14 10.7,11.3 12.5,9.3 C13.2,8.5 14.4,8.4 15.2,9.1 C16,9.8 16.1,11 15.4,11.8 C14.2,13.2 13.5,15 13.5,16.8 C13.5,21.1 17,24.5 21.2,24.5 C25.4,24.5 28.9,21 28.9,16.8 C28.9,14.9 28.2,13.2 27,11.8 C26.3,11 26.4,9.8 27.2,9.1 C28,8.4 29.2,8.5 29.9,9.3 C31.7,11.4 32.7,14.1 32.7,16.8 C32.8204914,20.6557261 30.9810276,24.0759066 28.1,26.1858828 L28.1,30.3 L33.4,30.3 L33.4,30.3 Z M21.3,21.9 C23.9509668,21.9 26.1,19.7509668 26.1,17.1 C26.1,14.4490332 23.9509668,12.3 21.3,12.3 C18.6490332,12.3 16.5,14.4490332 16.5,17.1 C16.5,19.7509668 18.6490332,21.9 21.3,21.9 L21.3,21.9 L21.3,21.9 Z" id="Oval"></path>
                        </g>
                    </g>
                </g>
            </g>
        </g>
    </g>
</svg>