<?xml version="1.0" encoding="UTF-8" standalone="no"?>
<svg width="17px" height="13px" viewBox="0 0 17 13" version="1.1" xmlns="http://www.w3.org/2000/svg" xmlns:xlink="http://www.w3.org/1999/xlink" xmlns:sketch="http://www.bohemiancoding.com/sketch/ns">
    <!-- Generator: Sketch 3.4.2 (15855) - http://www.bohemiancoding.com/sketch -->
    <title>logo-white-full</title>
    <desc>Created with Sketch.</desc>
    <defs></defs>
    <g id="Page-1" stroke="none" stroke-width="1" fill="none" fill-rule="evenodd" sketch:type="MSPage">
        <g id="logo-white-full" sketch:type="MSLayerGroup" fill="#FFFFFF">
            <g id="Page-1" sketch:type="MSShapeGroup">
                <g id="数人云-白色">
                    <path d="M14.6,5.3 C14.6,2.7 12.5,0.7 10,0.7 C8.5,0.7 7.1,1.4 6.3,2.5 C5.9,2.3 5.5,2.1 5,2.1 C3.5,2.1 2.4,3.3 2.4,4.7 C2.4,5 2.5,5.3 2.5,5.6 C1.2,6.1 0.3,7.3 0.3,8.8 C0.3,10.7 1.8,12.2 3.7,12.2 L3.8,12.2 L6,12.2 L6,10.6 C4.9,9.8 4.1,8.4 4.1,6.9 C4.1,5.8 4.5,4.8 5.2,4 C5.5,3.7 5.9,3.6 6.3,3.9 C6.6,4.2 6.7,4.7 6.4,5 C5.9,5.5 5.7,6.2 5.7,7 C5.7,8.7 7.1,10 8.7,10 C10.4,10 11.7,8.6 11.7,7 C11.7,6.3 11.4,5.6 11,5 C10.7,4.7 10.8,4.2 11.1,3.9 C11.4,3.6 11.9,3.7 12.2,4 C12.9,4.8 13.3,5.9 13.3,6.9 C13.3,8.4 12.6,9.7 11.4,10.6 L11.4,12.2 L13.4,12.2 C15.2,12.1 16.7,10.6 16.7,8.8 C16.7,7.4 15.8,6.2 14.6,5.7 L14.6,5.3 L14.6,5.3 Z M8.7,8.9 C7.7,8.9 6.8,8.1 6.8,7 C6.8,6 7.6,5.1 8.7,5.1 C9.8,5.1 10.6,6 10.6,7 C10.6,8.1 9.7,8.9 8.7,8.9 L8.7,8.9 L8.7,8.9 Z" id="Shape"></path>
                </g>
            </g>
        </g>
    </g>
</svg>