<?xml version="1.0" encoding="utf-8"?>
<!-- Generator: Adobe Illustrator 18.0.0, SVG Export Plug-In . SVG Version: 6.00 Build 0)  -->
<!DOCTYPE svg PUBLIC "-//W3C//DTD SVG 1.1//EN" "http://www.w3.org/Graphics/SVG/1.1/DTD/svg11.dtd">
<svg version="1.1" id="图层_1" xmlns="http://www.w3.org/2000/svg" xmlns:xlink="http://www.w3.org/1999/xlink" x="0px" y="0px"
	 viewBox="0 0 109 33" enable-background="new 0 0 109 33" xml:space="preserve">
<g>
	<circle fill="#2990D0" cx="31.5" cy="23.2" r="9.5"/>
	<circle fill="#2990D0" cx="58.2" cy="23.2" r="9.5"/>
	<circle fill="#2990D0" cx="35" cy="11.9" r="7.4"/>
	<circle fill="#2990D0" cx="49.1" cy="13.3" r="13"/>
	<rect x="31.8" y="13.7" fill="#2990D0" width="26.7" height="19"/>
</g>
<g>
	<g>
		<circle fill="#FFFFFF" cx="45.4" cy="18.2" r="5.3"/>
	</g>
	<g>
		<path fill="#FFFFFF" d="M45.4,30.6c-7,0-12.7-5.7-12.7-12.7c0-3,1.1-6,3.1-8.3c0.8-0.9,2.1-1,3-0.2s1,2.1,0.2,3
			c-1.3,1.5-2,3.5-2,5.5c0,4.7,3.8,8.5,8.5,8.5s8.5-3.8,8.5-8.5c0-2-0.7-4-2-5.5c-0.8-0.9-0.6-2.2,0.2-3c0.9-0.8,2.2-0.6,3,0.2
			c1.9,2.3,3.1,5.2,3.1,8.3C58,25,52.4,30.6,45.4,30.6z"/>
	</g>
	<g>
		<rect x="38" y="26.9" fill="#FFFFFF" width="14.8" height="5.7"/>
	</g>
</g>
<g enable-background="new    ">
	<path fill="#FFFFFF" d="M65.4,9h-1V0.4h1.1v3.1c0.4-0.6,1-0.8,1.7-0.8c0.4,0,0.7,0.1,1.1,0.2s0.6,0.4,0.8,0.7s0.4,0.6,0.5,1
		s0.2,0.8,0.2,1.3c0,1.1-0.3,1.9-0.8,2.5s-1.2,0.9-1.9,0.9c-0.7,0-1.3-0.3-1.7-0.9V9z M65.4,5.8c0,0.7,0.1,1.3,0.3,1.6
		c0.3,0.5,0.8,0.8,1.3,0.8c0.5,0,0.9-0.2,1.2-0.6s0.5-1,0.5-1.8c0-0.8-0.2-1.4-0.5-1.8s-0.7-0.6-1.2-0.6c-0.5,0-0.9,0.2-1.2,0.6
		S65.4,5.1,65.4,5.8z"/>
	<path fill="#FFFFFF" d="M75.4,7l1.1,0.1c-0.2,0.6-0.5,1.1-1,1.5s-1.1,0.5-1.8,0.5c-0.9,0-1.6-0.3-2.2-0.8s-0.8-1.3-0.8-2.4
		c0-1,0.3-1.9,0.8-2.4s1.2-0.9,2.1-0.9c0.8,0,1.5,0.3,2,0.8s0.8,1.4,0.8,2.4c0,0.1,0,0.2,0,0.3h-4.6c0,0.7,0.2,1.2,0.6,1.6
		s0.8,0.5,1.3,0.5c0.4,0,0.7-0.1,1-0.3S75.2,7.4,75.4,7z M71.9,5.3h3.5c0-0.5-0.2-0.9-0.4-1.2c-0.3-0.4-0.8-0.6-1.3-0.6
		c-0.5,0-0.9,0.2-1.2,0.5S72,4.7,71.9,5.3z"/>
	<path fill="#FFFFFF" d="M80.1,8L80.3,9C80,9,79.7,9,79.5,9c-0.4,0-0.7-0.1-0.9-0.2s-0.4-0.3-0.4-0.5S78,7.8,78,7.1V3.6h-0.8V2.7H78
		V1.2l1-0.6v2.2h1.1v0.8h-1.1v3.6c0,0.3,0,0.5,0.1,0.6s0.1,0.2,0.2,0.2s0.2,0.1,0.4,0.1C79.8,8.1,79.9,8.1,80.1,8z"/>
	<path fill="#FFFFFF" d="M85.2,8.2c-0.4,0.3-0.8,0.6-1.1,0.7s-0.7,0.2-1.2,0.2c-0.7,0-1.2-0.2-1.6-0.5s-0.6-0.8-0.6-1.3
		c0-0.3,0.1-0.6,0.2-0.8s0.3-0.5,0.5-0.6s0.5-0.3,0.8-0.3c0.2-0.1,0.5-0.1,0.9-0.2c0.9-0.1,1.5-0.2,1.9-0.4c0-0.1,0-0.2,0-0.3
		c0-0.4-0.1-0.7-0.3-0.9c-0.3-0.2-0.7-0.4-1.2-0.4c-0.5,0-0.9,0.1-1.1,0.3S82.1,4.2,82,4.7l-1-0.1c0.1-0.4,0.2-0.8,0.5-1.1
		S82,3,82.4,2.8s0.9-0.2,1.4-0.2c0.5,0,1,0.1,1.3,0.2s0.6,0.3,0.7,0.5s0.3,0.4,0.3,0.7c0,0.2,0.1,0.5,0.1,1v1.4c0,1,0,1.6,0.1,1.9
		s0.1,0.5,0.3,0.7h-1.1C85.3,8.7,85.2,8.5,85.2,8.2z M85.1,5.8c-0.4,0.2-1,0.3-1.7,0.4c-0.4,0.1-0.7,0.1-0.9,0.2s-0.3,0.2-0.4,0.3
		s-0.1,0.3-0.1,0.5c0,0.3,0.1,0.5,0.3,0.7s0.5,0.3,0.9,0.3c0.4,0,0.8-0.1,1.1-0.3s0.5-0.4,0.7-0.7c0.1-0.2,0.2-0.6,0.2-1.1V5.8z"/>
</g>
</svg>
