<?xml version="1.0" encoding="utf-8"?>
<!-- Generator: Adobe Illustrator 18.0.0, SVG Export Plug-In . SVG Version: 6.00 Build 0)  -->
<!DOCTYPE svg PUBLIC "-//W3C//DTD SVG 1.1//EN" "http://www.w3.org/Graphics/SVG/1.1/DTD/svg11.dtd">
<svg version="1.1" id="图层_1" xmlns="http://www.w3.org/2000/svg" xmlns:xlink="http://www.w3.org/1999/xlink" x="0px" y="0px"
	 viewBox="0 0 109 33" enable-background="new 0 0 109 33" xml:space="preserve">
<g>
	<circle fill="#2990D0" cx="7" cy="20.6" r="7"/>
	<circle fill="#2990D0" cx="26.7" cy="20.6" r="7"/>
	<circle fill="#2990D0" cx="9.6" cy="12.3" r="5.4"/>
	<circle fill="#2990D0" cx="19.9" cy="13.4" r="9.6"/>
	<rect x="7.3" y="13.6" fill="#2990D0" width="19.7" height="14"/>
</g>
<g>
	<g>
		<circle fill="#FFFFFF" cx="17.2" cy="17" r="3.9"/>
	</g>
	<g>
		<path fill="#FFFFFF" d="M17.2,26.1c-5.2,0-9.4-4.2-9.4-9.4c0-2.3,0.8-4.4,2.3-6c0.6-0.6,1.5-0.7,2.2-0.2c0.6,0.6,0.7,1.5,0.2,2.2
			c-1,1.1-1.5,2.6-1.5,4c0,3.5,2.8,6.2,6.2,6.2s6.2-2.8,6.2-6.2c0-1.5-0.6-2.9-1.5-4c-0.6-0.6-0.5-1.6,0.2-2.2
			c0.6-0.6,1.6-0.5,2.2,0.2c1.5,1.7,2.3,3.9,2.3,6C26.5,21.9,22.3,26.1,17.2,26.1z"/>
	</g>
	<g>
		<rect x="11.8" y="23.4" fill="#FFFFFF" width="10.9" height="4.2"/>
	</g>
</g>
<g>
	<g>
		<path fill="#FFFFFF" d="M38.6,27.3c0.1,0.1,0.1,0.2,0.2,0.2c0.1,0.1,0.2,0.1,0.2,0.1s0.2,0,0.3,0c0.1,0,0.2,0,0.2,0s0.2,0,0.2-0.1
			c0.1,0,0.2-0.1,0.2-0.2c0.1-0.1,0.1-0.2,0.1-0.2c0-0.2-0.1-0.2-0.2-0.2c-0.1-0.1-0.2-0.1-0.4-0.2c-0.2,0-0.3-0.1-0.5-0.1
			s-0.3-0.1-0.5-0.2s-0.2-0.2-0.4-0.2c-0.1-0.1-0.2-0.2-0.2-0.5c0-0.2,0-0.2,0.1-0.4c0.1-0.1,0.2-0.2,0.2-0.2
			c0.1-0.1,0.2-0.1,0.4-0.2c0.2,0,0.2-0.1,0.4-0.1c0.2,0,0.3,0,0.5,0.1c0.2,0,0.2,0.1,0.4,0.2c0.1,0.1,0.2,0.2,0.2,0.2
			c0.1,0.1,0.1,0.2,0.1,0.5h-0.5c0-0.1,0-0.2-0.1-0.2c-0.1-0.1-0.1-0.1-0.2-0.2c-0.1,0-0.2-0.1-0.2-0.1c-0.1,0-0.2,0-0.2,0
			c-0.1,0-0.2,0-0.2,0c-0.1,0-0.2,0-0.2,0.1s-0.1,0.1-0.2,0.1c0,0.1-0.1,0.1-0.1,0.2s0,0.2,0.1,0.2c0.1,0.1,0.2,0.1,0.2,0.2
			c0.1,0,0.2,0.1,0.3,0.1c0.1,0,0.2,0.1,0.4,0.1c0.1,0,0.2,0.1,0.4,0.1c0.1,0,0.2,0.1,0.3,0.2c0.1,0.1,0.2,0.2,0.2,0.2
			c0.1,0.1,0.1,0.2,0.1,0.4s0,0.3-0.1,0.5c-0.1,0.1-0.2,0.2-0.3,0.2c-0.1,0.1-0.2,0.2-0.4,0.2S39.4,28,39.3,28s-0.3,0-0.5-0.1
			c-0.2,0-0.2-0.1-0.4-0.2c-0.1-0.1-0.2-0.2-0.2-0.3c-0.1-0.2-0.1-0.2-0.1-0.5h0.5C38.5,27.1,38.5,27.2,38.6,27.3z"/>
		<path fill="#FFFFFF" d="M42.5,23.8v1.6l0,0c0-0.1,0.1-0.2,0.2-0.2s0.2-0.1,0.2-0.2c0.1,0,0.2-0.1,0.2-0.1s0.2,0,0.2,0
			c0.2,0,0.4,0,0.5,0.1c0.2,0.1,0.2,0.2,0.3,0.2s0.2,0.2,0.2,0.3c0,0.2,0.1,0.2,0.1,0.5v2h-0.5v-2.1c0-0.2-0.1-0.3-0.2-0.5
			c-0.1-0.1-0.2-0.2-0.5-0.2c-0.2,0-0.2,0-0.4,0.1s-0.2,0.1-0.2,0.2s-0.2,0.2-0.2,0.3c0,0.1-0.1,0.2-0.1,0.4v1.7h-0.5v-4.2H42.5z"/>
		<path fill="#FFFFFF" d="M48.1,28v-0.5l0,0c-0.1,0.2-0.2,0.3-0.4,0.4s-0.4,0.2-0.6,0.2c-0.2,0-0.4,0-0.5-0.1
			c-0.2-0.1-0.2-0.2-0.3-0.2c-0.1-0.1-0.2-0.2-0.2-0.3c0-0.2-0.1-0.2-0.1-0.5v-2h0.5v2.1c0,0.2,0.1,0.3,0.2,0.5
			c0.1,0.1,0.2,0.2,0.5,0.2c0.2,0,0.2,0,0.4-0.1c0.1-0.1,0.2-0.1,0.2-0.2c0.1-0.1,0.2-0.2,0.2-0.3c0-0.1,0.1-0.2,0.1-0.4V25h0.5V28
			H48.1z"/>
		<path fill="#FFFFFF" d="M50.6,25v0.6l0,0c0.1-0.2,0.2-0.4,0.5-0.6s0.4-0.2,0.6-0.2v0.6c-0.2,0-0.4,0-0.5,0.1
			c-0.2,0.1-0.2,0.2-0.3,0.2s-0.2,0.2-0.2,0.4s-0.1,0.3-0.1,0.6V28h-0.5V25H50.6z"/>
		<path fill="#FFFFFF" d="M55.1,27.8c-0.2,0.2-0.5,0.2-0.9,0.2c-0.2,0-0.5,0-0.6-0.1c-0.2-0.1-0.3-0.2-0.5-0.3
			c-0.1-0.2-0.2-0.3-0.2-0.5c-0.1-0.2-0.1-0.4-0.1-0.6s0-0.5,0.1-0.6c0.1-0.2,0.2-0.4,0.3-0.5c0.2-0.1,0.2-0.2,0.5-0.3
			C53.8,25,54,25,54.2,25c0.2,0,0.5,0.1,0.6,0.2c0.2,0.1,0.3,0.2,0.4,0.4s0.2,0.4,0.2,0.6c0,0.2,0.1,0.4,0.1,0.6h-2.3
			c0,0.2,0,0.2,0.1,0.4c0,0.1,0.1,0.2,0.2,0.3s0.2,0.2,0.3,0.2c0.1,0.1,0.2,0.1,0.4,0.1c0.2,0,0.4-0.1,0.6-0.2s0.2-0.2,0.2-0.5h0.5
			C55.4,27.4,55.2,27.6,55.1,27.8z M54.9,25.9c-0.1-0.1-0.1-0.2-0.2-0.2c-0.1-0.1-0.2-0.2-0.2-0.2c-0.1-0.1-0.2-0.1-0.3-0.1
			c-0.2,0-0.2,0-0.3,0.1s-0.2,0.1-0.2,0.2c-0.1,0.1-0.2,0.2-0.2,0.2c-0.1,0.1-0.1,0.2-0.1,0.3h1.8C55,26.1,55,25.9,54.9,25.9z"/>
		<path fill="#FFFFFF" d="M57.3,25v0.5l0,0c0.2-0.4,0.6-0.6,1-0.6c0.2,0,0.4,0,0.5,0.1c0.2,0.1,0.2,0.2,0.3,0.2
			c0.1,0.1,0.2,0.2,0.2,0.3c0,0.2,0.1,0.2,0.1,0.5v2.1h-0.5V26c0-0.2-0.1-0.3-0.2-0.5s-0.2-0.2-0.5-0.2c-0.2,0-0.2,0-0.4,0.1
			c-0.1,0.1-0.2,0.1-0.2,0.2c-0.1,0.1-0.2,0.2-0.2,0.3c0,0.1-0.1,0.2-0.1,0.4V28h-0.5V25H57.3z"/>
		<path fill="#FFFFFF" d="M62.2,28.4c-0.1,0.2-0.1,0.2-0.2,0.4c-0.1,0.1-0.1,0.2-0.2,0.2s-0.2,0.1-0.2,0.2c-0.1,0-0.2,0.1-0.2,0.1
			c-0.1,0-0.1,0-0.2,0s-0.1,0-0.2,0v-0.5c0.1,0,0.1,0,0.2,0.1c0.1,0,0.1,0,0.2,0s0.2,0,0.2-0.1c0.1-0.1,0.1-0.1,0.2-0.2l0.2-0.5
			L60.6,25h0.6l0.9,2.5l0,0l0.8-2.5h0.6L62.2,28.4z"/>
		<path fill="#FFFFFF" d="M66.8,28v-0.5l0,0c-0.1,0.2-0.2,0.3-0.4,0.4s-0.4,0.2-0.6,0.2s-0.4,0-0.5-0.1c-0.2-0.1-0.2-0.2-0.3-0.2
			c-0.1-0.1-0.2-0.2-0.2-0.3c0-0.2-0.1-0.2-0.1-0.5v-2h0.5v2.1c0,0.2,0.1,0.3,0.2,0.5c0.1,0.1,0.2,0.2,0.5,0.2c0.2,0,0.2,0,0.4-0.1
			c0.1-0.1,0.2-0.1,0.2-0.2c0.1-0.1,0.2-0.2,0.2-0.3c0-0.1,0.1-0.2,0.1-0.4V25h0.5V28H66.8z"/>
		<path fill="#FFFFFF" d="M69.3,25v0.5l0,0c0.2-0.4,0.6-0.6,1-0.6c0.2,0,0.4,0,0.5,0.1c0.2,0.1,0.2,0.2,0.3,0.2
			c0.1,0.1,0.2,0.2,0.2,0.3c0,0.2,0.1,0.2,0.1,0.5v2.1h-0.5V26c0-0.2-0.1-0.3-0.2-0.5s-0.2-0.2-0.5-0.2c-0.2,0-0.2,0-0.4,0.1
			c-0.1,0.1-0.2,0.1-0.2,0.2c-0.1,0.1-0.2,0.2-0.2,0.3c0,0.1-0.1,0.2-0.1,0.4V28h-0.5V25H69.3z"/>
		<path fill="#FFFFFF" d="M73.7,27.3v0.6H73v-0.6L73.7,27.3L73.7,27.3z"/>
		<path fill="#FFFFFF" d="M77.2,25.4c-0.1-0.1-0.2-0.2-0.5-0.2c-0.2,0-0.3,0-0.5,0.1c-0.1,0.1-0.2,0.2-0.2,0.2
			c-0.1,0.1-0.1,0.2-0.2,0.4c0,0.2-0.1,0.2-0.1,0.5c0,0.2,0,0.2,0.1,0.4c0,0.2,0.1,0.2,0.2,0.4c0.1,0.1,0.2,0.2,0.2,0.2
			c0.1,0.1,0.2,0.1,0.4,0.1c0.2,0,0.5-0.1,0.6-0.2c0.2-0.2,0.2-0.3,0.2-0.6H78c-0.1,0.4-0.2,0.6-0.4,0.9c-0.2,0.2-0.6,0.3-1,0.3
			c-0.2,0-0.5,0-0.6-0.1c-0.2-0.1-0.3-0.2-0.5-0.3c-0.1-0.2-0.2-0.3-0.2-0.5s-0.1-0.4-0.1-0.6s0-0.5,0.1-0.6
			c0.1-0.2,0.2-0.4,0.2-0.5c0.1-0.2,0.2-0.2,0.5-0.3c0.2-0.1,0.4-0.2,0.6-0.2c0.2,0,0.3,0,0.5,0.1c0.2,0,0.2,0.1,0.4,0.2
			c0.1,0.1,0.2,0.2,0.2,0.3c0.1,0.2,0.1,0.2,0.2,0.5h-0.5C77.5,25.7,77.4,25.6,77.2,25.4z"/>
		<path fill="#FFFFFF" d="M79.3,25.9c0.1-0.2,0.2-0.4,0.2-0.5c0.1-0.2,0.2-0.2,0.5-0.3c0.2-0.1,0.4-0.1,0.6-0.1s0.5,0,0.6,0.1
			c0.2,0.1,0.3,0.2,0.5,0.3c0.1,0.2,0.2,0.3,0.2,0.5c0.1,0.2,0.1,0.4,0.1,0.6s0,0.4-0.1,0.6c-0.1,0.2-0.2,0.4-0.2,0.5
			c-0.1,0.2-0.2,0.2-0.5,0.3C81.2,28,80.9,28,80.7,28s-0.5,0-0.6-0.1c-0.2-0.1-0.3-0.2-0.5-0.3c-0.1-0.2-0.2-0.3-0.2-0.5
			c-0.1-0.2-0.1-0.4-0.1-0.6S79.3,26,79.3,25.9z M79.8,27c0.1,0.2,0.1,0.2,0.2,0.4c0.1,0.1,0.2,0.2,0.3,0.2c0.1,0.1,0.2,0.1,0.4,0.1
			s0.2,0,0.4-0.1c0.1-0.1,0.2-0.1,0.3-0.2c0.1-0.1,0.2-0.2,0.2-0.4c0.1-0.2,0.1-0.3,0.1-0.5s0-0.3-0.1-0.5s-0.1-0.2-0.2-0.4
			c-0.1-0.1-0.2-0.2-0.3-0.2c-0.1-0.1-0.2-0.1-0.4-0.1s-0.2,0-0.4,0.1c-0.1,0.1-0.2,0.1-0.3,0.2c-0.1,0.1-0.2,0.2-0.2,0.4
			c-0.1,0.2-0.1,0.3-0.1,0.5S79.8,26.8,79.8,27z"/>
		<path fill="#FFFFFF" d="M84.1,25v0.5l0,0c0.2-0.3,0.6-0.5,1-0.5c0.2,0,0.4,0,0.5,0.1c0.2,0.1,0.2,0.2,0.3,0.4
			c0.1-0.2,0.2-0.2,0.4-0.4c0.2-0.1,0.3-0.2,0.6-0.2c0.2,0,0.2,0,0.4,0.1c0.1,0,0.2,0.1,0.3,0.2s0.2,0.2,0.2,0.2
			c0.1,0.1,0.1,0.2,0.1,0.4V28h-0.5v-2c0-0.1,0-0.2,0-0.2s-0.1-0.2-0.1-0.2c-0.1-0.1-0.1-0.1-0.2-0.2c-0.1,0-0.2-0.1-0.3-0.1
			c-0.2,0-0.5,0.1-0.6,0.2c-0.2,0.2-0.2,0.3-0.2,0.6v1.9h-0.5v-2c0-0.1,0-0.2,0-0.2c0-0.1-0.1-0.2-0.1-0.2c-0.1-0.1-0.1-0.1-0.2-0.2
			c-0.1,0-0.2-0.1-0.2-0.1c-0.2,0-0.2,0-0.4,0.1c-0.1,0.1-0.2,0.2-0.2,0.2c-0.1,0.1-0.1,0.2-0.2,0.2c0,0.1-0.1,0.2-0.1,0.2v1.9h-0.5
			v-3H84.1z"/>
	</g>
	<path fill="#FFFFFF" d="M57.3,19.9l4-12.9h3l-1,3.5h2.4l2.4,9.3c0.2,0.5,0.4,0.6,1,0.6h1.6v2.2h-3.4c-1,0-1.1-0.4-1.4-1.1l-2.6-9.4
		H63l-3.2,9.7c-0.2,0.6-0.6,0.8-1.2,0.8h-3.4v-2.1h1.5C56.9,20.5,57.1,20.4,57.3,19.9z"/>
	<g>
		<g>
			<g>
				<path fill="#FFFFFF" d="M48.8,11.5l1.1,3.1l1.3-4h2.3L51,18.2l1,2.5c0.1,0.2,0.2,0.3,0.6,0.3h1v1.6h-2.1c-0.6,0-0.7-0.2-1-0.6
					L50,20.9l-0.4,1c-0.2,0.5-0.4,0.6-1,0.6h-2.1V21h1c0.1,0,0.3,0,0.4-0.2l1-3l-2.3-6.4C46.5,11.5,48.8,11.5,48.8,11.5z"/>
			</g>
		</g>
		<path fill="#FFFFFF" d="M46.5,10.9V9h0.3c0.3,0,0.5-0.2,0.6-0.6l0.2-1.4h2.2l-0.1,1h4v2h-4.3l-0.2,0.4C49,10.9,48.6,11,47.9,11
			L46.5,10.9L46.5,10.9z"/>
		<polygon fill="#FFFFFF" points="42.9,15.2 41,15.2 41,11.2 38.1,11.2 38.1,9.2 38.5,9.2 38.5,7.4 40.1,7.4 40.2,9.2 41,9.2 
			41,7.1 42.9,7.1 		"/>
		<polygon fill="#FFFFFF" points="41,7.1 43,7.1 43,9.2 43.8,9.2 43.8,7.4 45.5,7.4 45.3,9.2 45.9,9.2 45.9,11.2 43,11.2 43,15.2 
			41,15.2 		"/>
		<path fill="#FFFFFF" d="M38.1,14.9v-1.4c0.4,0.1,0.6-0.2,0.6-0.6l0.2-1.1h1.8L40.3,14c-0.2,0.6-0.4,0.9-1,0.9H38.1z"/>
		<path fill="#FFFFFF" d="M45.9,14.9h-1.1c-0.7,0-1.1-0.2-1.2-1l-0.5-2.2h1.8l0.2,1.2c0.1,0.4,0.2,0.5,0.7,0.5L45.9,14.9L45.9,14.9z
			"/>
		<path fill="#FFFFFF" d="M45.3,18h0.6v-1.9h-0.6v-0.6h-1.9v0.6h-3.1v-0.6h-1.9v0.6h-0.3V18h0.3v1.5l2.2,1.4c0,0-0.4,0.2-0.8,0.2
			s-1.6,0-1.6,0v1.6h2.3c0.4,0,0.6-0.1,1-0.2l0.7-0.6l0.9,0.6c0.2,0.2,0.5,0.2,0.9,0.2h2.2V21c0,0-0.6,0-1.2,0s-1-0.4-1-0.4l1.7-1.5
			V18H45.3z M43.5,18.6l-1.5,1l-1.8-1.1V18h3.3C43.5,18,43.5,18.6,43.5,18.6z"/>
	</g>
	<g>
		<g>
			<path fill="#FFFFFF" d="M72.2,21l2.3-6h-2.3v-2.3h15.6V15H77.1L75,20.5h9.9c0.2,0,0.4-0.1,0.4-0.3v-2.5h2.4v3.3
				c0,1.1-0.6,1.7-1.6,1.7H72.2V21z"/>
		</g>
		<rect x="72.5" y="7.1" fill="#FFFFFF" width="15.2" height="2.3"/>
	</g>
</g>
<g enable-background="new    ">
	<path fill="#FFFFFF" d="M91.7,13.7h-0.8V6.7h0.9v2.5c0.4-0.5,0.8-0.7,1.4-0.7c0.3,0,0.6,0.1,0.9,0.2c0.3,0.1,0.5,0.3,0.7,0.5
		c0.2,0.2,0.3,0.5,0.4,0.8c0.1,0.3,0.2,0.7,0.2,1c0,0.9-0.2,1.5-0.6,2c-0.4,0.5-0.9,0.7-1.5,0.7c-0.6,0-1.1-0.2-1.4-0.7V13.7z
		 M91.7,11.1c0,0.6,0.1,1,0.2,1.3c0.3,0.4,0.6,0.7,1.1,0.7c0.4,0,0.7-0.2,1-0.5c0.3-0.3,0.4-0.8,0.4-1.4c0-0.7-0.1-1.1-0.4-1.5
		c-0.3-0.3-0.6-0.5-0.9-0.5c-0.4,0-0.7,0.2-1,0.5C91.8,10,91.7,10.5,91.7,11.1z"/>
	<path fill="#FFFFFF" d="M99.7,12l0.9,0.1c-0.1,0.5-0.4,0.9-0.8,1.2c-0.4,0.3-0.9,0.4-1.4,0.4c-0.7,0-1.3-0.2-1.7-0.7
		C96.2,12.6,96,12,96,11.2c0-0.8,0.2-1.5,0.7-2c0.4-0.5,1-0.7,1.7-0.7c0.7,0,1.2,0.2,1.6,0.7c0.4,0.5,0.6,1.1,0.6,1.9
		c0,0.1,0,0.1,0,0.2h-3.7c0,0.6,0.2,1,0.5,1.3c0.3,0.3,0.6,0.4,1,0.4c0.3,0,0.6-0.1,0.8-0.2C99.4,12.7,99.6,12.4,99.7,12z M97,10.7
		h2.8c0-0.4-0.1-0.7-0.3-0.9c-0.3-0.3-0.6-0.5-1.1-0.5c-0.4,0-0.7,0.1-1,0.4C97.1,9.9,97,10.2,97,10.7z"/>
	<path fill="#FFFFFF" d="M103.6,12.9l0.1,0.8c-0.2,0.1-0.5,0.1-0.6,0.1c-0.3,0-0.5,0-0.7-0.1c-0.2-0.1-0.3-0.2-0.4-0.4
		s-0.1-0.5-0.1-1V9.3h-0.6V8.6h0.6V7.4l0.8-0.5v1.8h0.9v0.7h-0.9v2.9c0,0.2,0,0.4,0,0.5c0,0.1,0.1,0.1,0.1,0.2
		c0.1,0,0.2,0.1,0.3,0.1C103.3,12.9,103.4,12.9,103.6,12.9z"/>
	<path fill="#FFFFFF" d="M107.7,13c-0.3,0.3-0.6,0.5-0.9,0.6c-0.3,0.1-0.6,0.2-0.9,0.2c-0.6,0-1-0.1-1.3-0.4s-0.4-0.6-0.4-1
		c0-0.2,0.1-0.5,0.2-0.7c0.1-0.2,0.3-0.4,0.4-0.5c0.2-0.1,0.4-0.2,0.6-0.3c0.2,0,0.4-0.1,0.8-0.1c0.7-0.1,1.2-0.2,1.5-0.3
		c0-0.1,0-0.2,0-0.2c0-0.3-0.1-0.6-0.2-0.7c-0.2-0.2-0.5-0.3-1-0.3c-0.4,0-0.7,0.1-0.9,0.2c-0.2,0.1-0.3,0.4-0.4,0.7l-0.8-0.1
		c0.1-0.4,0.2-0.6,0.4-0.9c0.2-0.2,0.4-0.4,0.8-0.5c0.3-0.1,0.7-0.2,1.1-0.2c0.4,0,0.8,0.1,1,0.2c0.3,0.1,0.5,0.2,0.6,0.4
		s0.2,0.3,0.3,0.6c0,0.1,0,0.4,0,0.8v1.1c0,0.8,0,1.3,0.1,1.5c0,0.2,0.1,0.4,0.2,0.6h-0.9C107.7,13.5,107.7,13.3,107.7,13z
		 M107.6,11.1c-0.3,0.1-0.8,0.2-1.4,0.3c-0.3,0.1-0.6,0.1-0.7,0.2s-0.3,0.2-0.3,0.3c-0.1,0.1-0.1,0.3-0.1,0.4c0,0.2,0.1,0.4,0.3,0.6
		c0.2,0.2,0.4,0.2,0.8,0.2c0.3,0,0.6-0.1,0.9-0.2c0.3-0.1,0.4-0.3,0.6-0.6c0.1-0.2,0.1-0.5,0.1-0.9V11.1z"/>
</g>
</svg>
