<?xml version="1.0" encoding="utf-8"?>
<!-- Generator: Adobe Illustrator 18.0.0, SVG Export Plug-In . SVG Version: 6.00 Build 0)  -->
<!DOCTYPE svg PUBLIC "-//W3C//DTD SVG 1.1//EN" "http://www.w3.org/Graphics/SVG/1.1/DTD/svg11.dtd">
<svg version="1.1" id="图层_1" xmlns="http://www.w3.org/2000/svg" xmlns:xlink="http://www.w3.org/1999/xlink" x="0px" y="0px"
	 viewBox="0 0 119.5 90.3" enable-background="new 0 0 119.5 90.3" xml:space="preserve">
<g>
	<g>
		<path fill="#31363B" d="M137.1,83.5c0.2,0.3,0.4,0.5,0.7,0.6c0.3,0.2,0.6,0.3,0.9,0.3c0.3,0.1,0.7,0.1,1.1,0.1
			c0.3,0,0.6,0,0.9-0.1c0.3,0,0.6-0.1,0.8-0.2c0.3-0.1,0.5-0.3,0.6-0.5c0.2-0.2,0.3-0.5,0.3-0.8c0-0.5-0.2-0.8-0.5-1
			c-0.3-0.2-0.8-0.4-1.3-0.6c-0.5-0.1-1.1-0.3-1.7-0.4c-0.6-0.1-1.2-0.3-1.7-0.5c-0.5-0.2-1-0.5-1.3-0.9c-0.3-0.4-0.5-0.9-0.5-1.6
			c0-0.5,0.1-1,0.4-1.4c0.2-0.4,0.6-0.7,0.9-1c0.4-0.2,0.8-0.4,1.3-0.5c0.5-0.1,1-0.2,1.4-0.2c0.6,0,1.2,0.1,1.7,0.2
			c0.5,0.1,1,0.3,1.4,0.5c0.4,0.3,0.7,0.6,1,1s0.4,1,0.4,1.6h-1.8c0-0.3-0.1-0.6-0.3-0.9c-0.2-0.2-0.3-0.4-0.6-0.6
			c-0.2-0.1-0.5-0.2-0.8-0.3c-0.3-0.1-0.6-0.1-0.9-0.1c-0.3,0-0.5,0-0.8,0.1c-0.3,0-0.5,0.1-0.7,0.2c-0.2,0.1-0.4,0.2-0.5,0.4
			c-0.1,0.2-0.2,0.4-0.2,0.7c0,0.3,0.1,0.6,0.3,0.8c0.2,0.2,0.5,0.4,0.8,0.5c0.3,0.1,0.7,0.2,1.1,0.3c0.4,0.1,0.8,0.2,1.3,0.3
			c0.4,0.1,0.9,0.2,1.3,0.4c0.4,0.1,0.8,0.3,1.1,0.6c0.3,0.2,0.6,0.5,0.8,0.9c0.2,0.3,0.3,0.8,0.3,1.3c0,0.7-0.1,1.2-0.4,1.6
			c-0.3,0.4-0.6,0.8-1.1,1c-0.4,0.3-0.9,0.5-1.5,0.6c-0.6,0.1-1.1,0.2-1.6,0.2c-0.6,0-1.2-0.1-1.7-0.2c-0.5-0.1-1-0.3-1.4-0.6
			c-0.4-0.3-0.8-0.7-1-1.1c-0.3-0.5-0.4-1-0.4-1.7h1.8C136.8,82.9,136.9,83.3,137.1,83.5z"/>
		<path fill="#31363B" d="M150.9,71v5.7h0c0.1-0.3,0.3-0.6,0.6-0.8c0.3-0.2,0.5-0.4,0.8-0.6c0.3-0.1,0.6-0.3,1-0.3
			c0.3-0.1,0.7-0.1,1-0.1c0.7,0,1.3,0.1,1.8,0.3c0.5,0.2,0.9,0.5,1.2,0.8c0.3,0.3,0.5,0.8,0.6,1.2c0.1,0.5,0.2,1,0.2,1.6V86h-1.8
			v-7.3c0-0.7-0.2-1.2-0.6-1.6c-0.4-0.4-0.9-0.6-1.6-0.6c-0.5,0-1,0.1-1.4,0.3c-0.4,0.2-0.7,0.4-1,0.7c-0.3,0.3-0.5,0.7-0.6,1.1
			c-0.1,0.4-0.2,0.9-0.2,1.3V86h-1.8V71H150.9z"/>
		<path fill="#31363B" d="M170.9,86v-1.7h0c-0.4,0.7-0.9,1.2-1.4,1.5c-0.6,0.3-1.3,0.5-2.1,0.5c-0.7,0-1.3-0.1-1.8-0.3
			c-0.5-0.2-0.9-0.5-1.2-0.8c-0.3-0.3-0.5-0.8-0.6-1.2c-0.1-0.5-0.2-1-0.2-1.6v-7.1h1.8v7.3c0,0.7,0.2,1.2,0.6,1.6
			c0.4,0.4,0.9,0.6,1.6,0.6c0.5,0,1-0.1,1.4-0.3c0.4-0.2,0.7-0.4,1-0.7c0.3-0.3,0.5-0.7,0.6-1.1c0.1-0.4,0.2-0.9,0.2-1.4v-6.1h1.8
			V86H170.9z"/>
		<path fill="#31363B" d="M179.8,75.1v2.3h0c0.4-0.9,1-1.5,1.6-1.9c0.6-0.4,1.4-0.6,2.4-0.6v1.9c-0.7,0-1.3,0.1-1.8,0.3
			c-0.5,0.2-0.9,0.5-1.2,0.9c-0.3,0.4-0.5,0.8-0.7,1.4c-0.1,0.5-0.2,1.2-0.2,1.9V86h-1.8V75.1H179.8z"/>
		<path fill="#31363B" d="M195.4,85.3c-0.8,0.6-1.8,0.9-3.1,0.9c-0.9,0-1.6-0.1-2.2-0.4c-0.6-0.3-1.2-0.7-1.6-1.2
			c-0.4-0.5-0.8-1.1-1-1.8c-0.2-0.7-0.3-1.5-0.4-2.3c0-0.8,0.1-1.6,0.4-2.3c0.3-0.7,0.6-1.3,1.1-1.8c0.5-0.5,1-0.9,1.6-1.2
			c0.6-0.3,1.3-0.4,2-0.4c1,0,1.8,0.2,2.4,0.6c0.6,0.4,1.1,0.9,1.5,1.5c0.4,0.6,0.6,1.3,0.8,2c0.1,0.7,0.2,1.4,0.2,2.1H189
			c0,0.5,0,0.9,0.2,1.3c0.1,0.4,0.3,0.8,0.6,1.1c0.3,0.3,0.6,0.6,1.1,0.8c0.4,0.2,0.9,0.3,1.5,0.3c0.8,0,1.4-0.2,1.9-0.5
			c0.5-0.3,0.8-0.9,1-1.6h1.8C196.7,83.7,196.2,84.7,195.4,85.3z M195,78.3c-0.2-0.4-0.4-0.7-0.6-1c-0.3-0.3-0.6-0.5-1-0.6
			c-0.4-0.2-0.8-0.2-1.2-0.2c-0.5,0-0.9,0.1-1.2,0.2c-0.4,0.2-0.7,0.4-1,0.7c-0.3,0.3-0.5,0.6-0.6,1c-0.2,0.4-0.2,0.8-0.3,1.2h6.2
			C195.2,79.1,195.1,78.7,195,78.3z"/>
		<path fill="#31363B" d="M203.6,75.1v1.7h0c0.7-1.3,1.9-2,3.5-2c0.7,0,1.3,0.1,1.8,0.3c0.5,0.2,0.9,0.5,1.2,0.8
			c0.3,0.3,0.5,0.8,0.6,1.2c0.1,0.5,0.2,1,0.2,1.6V86h-1.8v-7.3c0-0.7-0.2-1.2-0.6-1.6s-0.9-0.6-1.6-0.6c-0.5,0-1,0.1-1.4,0.3
			c-0.4,0.2-0.7,0.4-1,0.7c-0.3,0.3-0.5,0.7-0.6,1.1c-0.1,0.4-0.2,0.9-0.2,1.3V86h-1.8V75.1H203.6z"/>
		<path fill="#31363B" d="M220.7,87.4c-0.2,0.5-0.4,1-0.6,1.3c-0.2,0.4-0.4,0.7-0.7,0.9c-0.2,0.2-0.5,0.4-0.8,0.5
			c-0.3,0.1-0.6,0.2-1,0.2c-0.2,0-0.4,0-0.6,0c-0.2,0-0.4-0.1-0.6-0.1v-1.6c0.2,0.1,0.3,0.1,0.5,0.2c0.2,0,0.4,0.1,0.5,0.1
			c0.4,0,0.7-0.1,0.9-0.3c0.2-0.2,0.4-0.4,0.6-0.7l0.7-1.8l-4.3-10.8h2l3.2,8.9h0l3-8.9h1.9L220.7,87.4z"/>
		<path fill="#31363B" d="M237.2,86v-1.7h0c-0.4,0.7-0.9,1.2-1.4,1.5c-0.6,0.3-1.3,0.5-2.1,0.5c-0.7,0-1.3-0.1-1.8-0.3
			c-0.5-0.2-0.9-0.5-1.2-0.8c-0.3-0.3-0.5-0.8-0.6-1.2c-0.1-0.5-0.2-1-0.2-1.6v-7.1h1.8v7.3c0,0.7,0.2,1.2,0.6,1.6
			c0.4,0.4,0.9,0.6,1.6,0.6c0.5,0,1-0.1,1.4-0.3c0.4-0.2,0.7-0.4,1-0.7c0.3-0.3,0.5-0.7,0.6-1.1c0.1-0.4,0.2-0.9,0.2-1.4v-6.1h1.8
			V86H237.2z"/>
		<path fill="#31363B" d="M246.1,75.1v1.7h0c0.7-1.3,1.9-2,3.5-2c0.7,0,1.3,0.1,1.8,0.3c0.5,0.2,0.9,0.5,1.2,0.8
			c0.3,0.3,0.5,0.8,0.6,1.2c0.1,0.5,0.2,1,0.2,1.6V86h-1.8v-7.3c0-0.7-0.2-1.2-0.6-1.6s-0.9-0.6-1.6-0.6c-0.5,0-1,0.1-1.4,0.3
			c-0.4,0.2-0.7,0.4-1,0.7c-0.3,0.3-0.5,0.7-0.6,1.1c-0.1,0.4-0.2,0.9-0.2,1.3V86h-1.8V75.1H246.1z"/>
		<path fill="#31363B" d="M261.7,83.6V86h-2.3v-2.3H261.7z"/>
		<path fill="#31363B" d="M274.2,77c-0.4-0.4-1-0.6-1.8-0.6c-0.6,0-1.2,0.1-1.6,0.4c-0.4,0.2-0.8,0.6-1,0.9
			c-0.3,0.4-0.4,0.8-0.6,1.3c-0.1,0.5-0.2,1-0.2,1.6c0,0.5,0.1,1,0.2,1.5c0.1,0.5,0.3,0.9,0.6,1.3c0.3,0.4,0.6,0.7,1,0.9
			c0.4,0.2,0.9,0.3,1.4,0.3c0.9,0,1.6-0.2,2.1-0.7c0.5-0.5,0.8-1.1,0.9-1.9h1.8c-0.2,1.3-0.7,2.4-1.5,3.1c-0.8,0.7-1.9,1.1-3.3,1.1
			c-0.8,0-1.6-0.1-2.2-0.4c-0.6-0.3-1.2-0.6-1.6-1.1c-0.4-0.5-0.7-1.1-1-1.7c-0.2-0.7-0.3-1.4-0.3-2.2c0-0.8,0.1-1.6,0.3-2.3
			c0.2-0.7,0.5-1.3,1-1.8c0.4-0.5,1-0.9,1.6-1.2c0.6-0.3,1.4-0.5,2.2-0.5c0.6,0,1.2,0.1,1.7,0.2c0.5,0.1,1,0.4,1.4,0.7
			c0.4,0.3,0.8,0.7,1,1.2c0.3,0.5,0.4,1,0.5,1.7h-1.8C275,77.9,274.7,77.4,274.2,77z"/>
		<path fill="#31363B" d="M281.7,78.3c0.2-0.7,0.6-1.3,1-1.8c0.4-0.5,1-0.9,1.7-1.2c0.7-0.3,1.4-0.4,2.3-0.4c0.9,0,1.6,0.1,2.3,0.4
			c0.6,0.3,1.2,0.7,1.6,1.2c0.4,0.5,0.8,1.1,1,1.8c0.2,0.7,0.3,1.4,0.3,2.2s-0.1,1.5-0.3,2.2c-0.2,0.7-0.6,1.3-1,1.8
			c-0.4,0.5-1,0.9-1.6,1.2c-0.6,0.3-1.4,0.4-2.3,0.4c-0.9,0-1.6-0.1-2.3-0.4c-0.7-0.3-1.2-0.7-1.7-1.2c-0.4-0.5-0.8-1.1-1-1.8
			c-0.2-0.7-0.3-1.4-0.3-2.2S281.4,79,281.7,78.3z M283.5,82.3c0.2,0.5,0.4,0.9,0.7,1.3c0.3,0.3,0.7,0.6,1.1,0.8
			c0.4,0.2,0.8,0.3,1.3,0.3s0.9-0.1,1.3-0.3c0.4-0.2,0.8-0.4,1.1-0.8c0.3-0.3,0.5-0.8,0.7-1.3c0.2-0.5,0.3-1.1,0.3-1.7
			c0-0.7-0.1-1.2-0.3-1.7c-0.2-0.5-0.4-0.9-0.7-1.3c-0.3-0.3-0.7-0.6-1.1-0.8c-0.4-0.2-0.8-0.3-1.3-0.3s-0.9,0.1-1.3,0.3
			c-0.4,0.2-0.8,0.4-1.1,0.8c-0.3,0.3-0.5,0.8-0.7,1.3c-0.2,0.5-0.3,1.1-0.3,1.7C283.2,81.2,283.3,81.8,283.5,82.3z"/>
		<path fill="#31363B" d="M298.5,75.1v1.6h0c0.8-1.2,2-1.8,3.5-1.8c0.7,0,1.3,0.1,1.8,0.4c0.5,0.3,0.9,0.8,1.2,1.4
			c0.4-0.6,0.8-1,1.4-1.4c0.6-0.3,1.2-0.5,2-0.5c0.5,0,1,0.1,1.5,0.2c0.4,0.1,0.8,0.3,1.1,0.6c0.3,0.3,0.6,0.6,0.7,1
			c0.2,0.4,0.3,0.9,0.3,1.4V86h-1.8v-7.1c0-0.3,0-0.6-0.1-0.9c-0.1-0.3-0.2-0.5-0.3-0.8c-0.2-0.2-0.4-0.4-0.6-0.5
			c-0.3-0.1-0.6-0.2-1.1-0.2c-0.9,0-1.6,0.3-2.1,0.8c-0.5,0.5-0.8,1.2-0.8,2V86h-1.8v-7.1c0-0.3,0-0.7-0.1-1
			c-0.1-0.3-0.2-0.5-0.3-0.8c-0.2-0.2-0.4-0.4-0.6-0.5c-0.3-0.1-0.6-0.2-1-0.2c-0.5,0-1,0.1-1.3,0.3c-0.4,0.2-0.7,0.5-0.9,0.8
			c-0.2,0.3-0.4,0.6-0.5,0.9c-0.1,0.3-0.2,0.6-0.2,0.8V86h-1.8V75.1H298.5z"/>
	</g>
	<path fill="#31363B" d="M203.5,57.3l14.3-45.7h10.7l-3.8,12.7h8.6l8.6,33c0.5,1.7,1.5,2.1,3.4,2.1h5.7v7.3h-12.1
		c-3.5,0-4.1-1.4-5-4l-9-33.2h-1.4l-11.4,34.4c-0.7,2-1.9,2.8-4.3,2.8h-11.9v-7.5h5.4C202.2,59.2,202.8,59,203.5,57.3z"/>
	<g>
		<g>
			<g>
				<path fill="#31363B" d="M173.3,27.5l4.1,11.1l4.6-14.4h8.1L181.2,51l3.6,8.8c0.3,0.8,1,1.2,1.9,1.2h3.4v5.7h-7.5
					c-1.9,0-2.6-1-3.3-2.4l-1.7-3.8l-1.4,3.8c-0.6,1.7-1.4,2.3-3.6,2.4h-7.5v-5.5h3.4c0.3,0,1.1,0,1.3-0.5l3.6-10.7l-8.2-22.5H173.3
					z"/>
			</g>
		</g>
		<path fill="#31363B" d="M165.1,25.4v-6.9h1.2c1.2,0,1.7-0.5,1.9-1.9l0.5-5h7.6l-0.2,3.3h14.1v7.2h-15.3l-0.7,1.4
			c-0.6,1.4-2.1,1.9-4.5,1.9H165.1z"/>
		<polygon fill="#31363B" points="152.4,40.6 145.3,40.6 145.3,26.2 135,26.2 135,19 136.9,19 136.7,12.9 142.4,12.9 142.7,19 
			145.3,19 145.3,11.6 152.4,11.6 		"/>
		<polygon fill="#31363B" points="145.5,11.6 152.7,11.6 152.7,19 155.3,19 155.5,12.9 161.3,12.9 161,19 162.9,19 162.9,26.2 
			152.7,26.2 152.7,40.6 145.5,40.6 		"/>
		<path fill="#31363B" d="M135.3,39.3v-4.8c1.4,0.2,2.2-0.6,2.4-2.1l0.7-4.1h6.2l-1.4,7.9c-0.6,2.1-1.4,3.1-3.5,3.1H135.3z"/>
		<path fill="#31363B" d="M162.9,39.3h-3.9c-2.5,0-3.9-1-4.2-3.3l-1.6-7.6h6.2l0.9,4.2c0.4,1.4,0.9,1.6,2.6,1.7V39.3z"/>
		<path fill="#31363B" d="M160.8,50.5h2.1v-6.7h-2.1v-2.4h-6.7v2.4h-11.2v-2.4h-6.7v2.4H135v6.7h1.2v5.2l7.6,5c0,0-1.5,0.7-3,0.7
			c-1.5,0-5.8,0-5.8,0v5.3h7.9c1.3,0.1,2.3-0.3,3.6-1l2.5-1.9l3.2,1.9c0.8,0.5,1.7,1,3.1,1h7.6v-5.3c0,0-2.3,0-4.3,0
			c-2,0-3.8-1.4-3.8-1.4l6-5.2V50.5z M154.3,52.6l-5.3,3.8l-6.3-3.9v-2h11.6V52.6z"/>
	</g>
	<g>
		<g>
			<path fill="#31363B" d="M256.4,61.3l8.4-21.6h-8.4v-7.9h55.2v7.9h-37.9l-7.4,19.4h35.3c0.9,0,1.4-0.3,1.4-1.1V49h8.6v11.8
				c0,3.9-1.9,5.9-5.7,5.9h-49.5V61.3z"/>
		</g>
		<rect x="257.4" y="11.6" fill="#31363B" width="54.1" height="7.9"/>
	</g>
</g>
<path fill="#2990D0" d="M104.7,37c0.1-1,0.1-2,0.1-3c0-18.8-15.2-34-34-34c-11.1,0-21,5.3-27.2,13.6C40.8,12,37.5,11,34,11
	c-10.7,0-19.3,8.6-19.3,19.3c0,2.2,0.4,4.3,1.1,6.3C6.5,40.3,0,49.2,0,59.8c0,13.7,11.1,24.8,24.8,24.8c0.3,0,0.6,0,0.9,0v0h69.9v0
	c13.3-0.5,24-11.4,24-24.8C119.5,49.6,113.4,40.9,104.7,37z M63.2,32.9c7.6,0,13.8,6.2,13.8,13.8c0,7.6-6.2,13.8-13.8,13.8
	c-7.6,0-13.8-6.2-13.8-13.8C49.4,39.1,55.6,32.9,63.2,32.9z M82.6,73v11.6H43.9V73C35.5,67,30,57.1,30,46.1c0-7.9,2.8-15.6,8-21.6
	c2-2.3,5.5-2.6,7.8-0.6c2.3,2,2.6,5.5,0.6,7.8c-3.4,4-5.3,9.1-5.3,14.4c0,12.2,9.9,22.1,22.1,22.1c12.2,0,22.1-9.9,22.1-22.1
	c0-5.3-1.9-10.4-5.3-14.4c-2-2.3-1.7-5.8,0.6-7.8c2.3-2,5.8-1.7,7.8,0.6c5.1,6,8,13.7,8,21.6C96.4,57.1,91,67,82.6,73z"/>
</svg>
