<?xml version="1.0" encoding="iso-8859-1"?>
<!-- Generator: Adobe Illustrator 18.0.0, SVG Export Plug-In . SVG Version: 6.00 Build 0)  -->
<!DOCTYPE svg PUBLIC "-//W3C//DTD SVG 1.1//EN" "http://www.w3.org/Graphics/SVG/1.1/DTD/svg11.dtd">
<svg version="1.1" id="&#x56FE;&#x5C42;_1" xmlns="http://www.w3.org/2000/svg" xmlns:xlink="http://www.w3.org/1999/xlink" x="0px"
	 y="0px" viewBox="0 0 100 100" style="enable-background:new 0 0 100 100;" xml:space="preserve">
<circle style="fill:#9B9B9B;" cx="48.5" cy="49.737" r="48.5"/>
<g>
	<g>
		<defs>
			<circle id="SVGID_1_" cx="48.5" cy="49.737" r="48.5"/>
		</defs>
		<clipPath id="SVGID_2_">
			<use xlink:href="#SVGID_1_"  style="overflow:visible;"/>
		</clipPath>
		<g style="clip-path:url(#SVGID_2_);">
			<g>
				<rect x="41.1" y="71.562" style="fill:#FBF8FC;" width="16.947" height="8.282"/>
				<path style="fill:#41474F;" d="M31.072,46.836c-1.926-7.732-5.829-17.686,0.176-24.726c2.199-2.577,5.367-2.467,8.365-3.644
					c1.57-0.619,2.522-1.534,3.755-2.591c1.861-1.603,3.788-3.737,6.217-4.088c3.635-0.527,6.226,0.434,7.312,1.34
					c1.677,1.4,2.49,2.975,4.365,4.134c2.092,1.293,4.226,0.845,6.19,2.148c2.277,1.51,3.954,3.926,4.952,6.42
					c3.159,7.889,0.67,16.545-3.755,23.146c-0.956,1.427-1.658,2.989-3.021,4.065c-2.199,1.732-5.506,3.266-8.203,3.972
					c-5.312,1.386-13.386,0.166-17.631-3.215L31.072,46.836z"/>
				<circle style="fill:#FFEDCC;" cx="66.376" cy="47.316" r="5.427"/>
				<path style="fill:#FFEDCC;" d="M66.376,54.61c0,9.27-7.515,16.786-16.786,16.786l0,0c-9.27,0-16.786-7.515-16.786-16.786V40.027
					c0-9.27,7.515-16.786,16.786-16.786l0,0c9.27,0,16.786,7.515,16.786,16.786V54.61z"/>
				<rect x="43.484" y="60.965" style="fill:#FFEDCC;" width="12.208" height="20.855"/>
				<path style="fill:#EEF3F5;" d="M75.11,102.338v-8.31c0-9.552-7.742-17.294-17.294-17.294H41.368
					c-9.552,0-17.294,7.742-17.294,17.294v8.31H75.11z"/>
				<path style="fill:#9AC669;" d="M75.11,102.338v-8.31c0-9.552-7.742-17.294-17.294-17.294l-8.222,14.264l-8.222-14.264
					c-9.552,0-17.294,7.742-17.294,17.294v8.31H75.11z"/>
				<circle style="fill:#FFEDCC;" cx="32.804" cy="47.316" r="5.427"/>
				<path style="fill:#41474F;" d="M31.077,36.905c0,2.157-0.245,6.785,2.365,7.469c2.762,0.721,4.314-3.631,4.887-5.52
					c0.3,7.441,7.27-2.291,8.869-4.444c-0.268,1.797-1.044,5.183,1.649,5.511c2.393,0.286,4.781-3.704,6.106-5.21
					c-0.203,1.82,1.515,4.277,3.372,4.582c2.559,0.416,3.908-1.963,4.762-3.862c0.139,1.885-0.762,4.171,0.406,5.88
					c1.002,1.46,2.43,1.584,3.487,0.18c2.268-3.012,1.104-7.875-0.471-10.846c-2.661-5.021-8.324-8.776-13.903-8.998
					c-3.857-0.152-7.284,0.065-10.684,1.741c-1.843,0.91-3.728,1.885-5.344,3.178c-2.148,1.718-3.224,5.557-4.832,6.781
					L31.077,36.905z"/>
				<g>
					<path style="fill:#FBF8FC;" d="M41.1,86.07l8.49-9.363l-8.49-5.141C41.188,71.825,41.1,86.07,41.1,86.07z"/>
					<path style="fill:#FBF8FC;" d="M58.08,71.562l-8.49,5.141l8.49,9.363C58.08,86.07,57.992,71.825,58.08,71.562z"/>
				</g>
			</g>
			<g style="opacity:0.3;">
				<polygon style="fill:#FFEDCC;" points="49.618,76.735 49.59,76.707 49.562,76.735 				"/>
				<path style="fill:#FFEDCC;" d="M71.106,44.66c-0.896-1.584-2.559-2.67-4.49-2.753c-0.079,0.074-0.157,0.139-0.236,0.199
					c-0.614,0.453-1.289,0.49-1.908,0.143c-0.346-0.194-0.679-0.503-0.97-0.933c-1.169-1.709-0.268-3.991-0.406-5.88
					c-0.859,1.898-2.208,4.277-4.762,3.862c-1.857-0.305-3.575-2.762-3.372-4.582c-1.275,1.441-3.52,5.164-5.811,5.215v17.391v3.649
					v10.416v0.18v4.873l0.448,0.273l6.106-3.7v-1.446v-1.321c6.25-2.443,10.684-8.522,10.684-15.635v-1.866
					c2.998,0,5.427-2.43,5.427-5.427C71.803,46.351,71.544,45.445,71.106,44.66z"/>
				<polygon style="fill:#EEF3F5;" points="54.228,81.825 52.44,79.848 49.618,76.735 49.562,76.735 49.142,77.197 49.142,79.848 
					49.142,81.825 49.142,90.223 49.59,90.999 54.625,82.264 				"/>
				<path style="fill:#9AC669;" d="M75.11,94.029c0-9.474-7.617-17.164-17.058-17.289v3.072c0.009,3.266,0.028,6.254,0.028,6.254
					l-3.45-3.806l-5.035,8.735l-0.448-0.771v12.116H75.11C75.11,102.338,75.11,94.029,75.11,94.029z"/>
				<path style="fill:#41474F;" d="M66.376,42.101c0.079-0.06,0.157-0.125,0.236-0.199c-0.079-0.005-0.157-0.014-0.236-0.014V42.101
					z"/>
				<path style="fill:#41474F;" d="M72.408,25.819c-0.998-2.49-2.674-4.91-4.952-6.42c-1.963-1.303-4.102-0.855-6.19-2.148
					c-1.875-1.159-2.688-2.734-4.365-4.134c-1.085-0.905-3.677-1.866-7.312-1.34c-0.152,0.023-0.3,0.051-0.448,0.088v9.774v1.607
					v16.675c2.291-0.051,4.536-3.774,5.811-5.215c-0.203,1.82,1.515,4.277,3.372,4.582c2.559,0.416,3.908-1.963,4.762-3.862
					c0.139,1.885-0.762,4.171,0.406,5.88c0.296,0.43,0.624,0.739,0.97,0.933c0.624,0.346,1.298,0.309,1.908-0.143v-0.212
					c0.079,0,0.157,0.009,0.236,0.014c1.931,0.083,3.598,1.169,4.49,2.753C73.863,38.836,74.921,32.087,72.408,25.819z"/>
				<polygon style="fill:#FBF8FC;" points="49.562,76.735 49.59,76.707 49.142,76.435 49.142,76.735 				"/>
				<polygon style="fill:#FBF8FC;" points="49.562,76.735 49.142,76.735 49.142,77.197 				"/>
				<path style="fill:#FBF8FC;" d="M58.08,71.562l-0.028,0.018v1.095C58.052,72.019,58.061,71.608,58.08,71.562z"/>
				<path style="fill:#FBF8FC;" d="M58.048,79.816v-3.072v-4.065v-1.095v-0.018h-2.356v1.446l-6.106,3.7l0.028,0.028l2.822,3.113
					l1.792,1.977l0.397,0.439l3.45,3.806C58.08,86.07,58.061,83.081,58.048,79.816z"/>
			</g>
		</g>
	</g>
</g>
</svg>
