<?xml version="1.0" encoding="UTF-8" standalone="no"?>
<svg width="20px" height="20px" viewBox="0 0 20 20" version="1.1" xmlns="http://www.w3.org/2000/svg" xmlns:xlink="http://www.w3.org/1999/xlink" xmlns:sketch="http://www.bohemiancoding.com/sketch/ns">
    <!-- Generator: Sketch 3.3.3 (12072) - http://www.bohemiancoding.com/sketch -->
    <title>ic_loupe</title>
    <desc>Created with Sketch.</desc>
    <defs></defs>
    <g id="Material-Design-Icons" stroke="none" stroke-width="1" fill="none" fill-rule="evenodd" sketch:type="MSPage">
        <g id="Image-(137)" sketch:type="MSArtboardGroup" transform="translate(-818.000000, -242.000000)" fill="#FFFFFF">
            <g id="ic_loupe" sketch:type="MSLayerGroup" transform="translate(818.000000, 242.000000)">
                <path d="M11,5 L9,5 L9,9 L5,9 L5,11 L9,11 L9,15 L11,15 L11,11 L15,11 L15,9 L11,9 L11,5 L11,5 Z M10,0 C4.49,0 0,4.49 0,10 C0,15.51 4.49,20 10,20 L18,20 C19.1,20 20,19.1 20,18 L20,10 C20,4.49 15.51,0 10,0 L10,0 Z M10,18 C5.59,18 2,14.41 2,10 C2,5.59 5.59,2 10,2 C14.41,2 18,5.59 18,10 C18,14.41 14.41,18 10,18 L10,18 Z" id="Shape" sketch:type="MSShapeGroup"></path>
            </g>
        </g>
    </g>
</svg>