<?xml version="1.0" encoding="UTF-8" standalone="no"?>
<svg width="43px" height="13px" viewBox="0 0 43 13" version="1.1" xmlns="http://www.w3.org/2000/svg" xmlns:xlink="http://www.w3.org/1999/xlink" xmlns:sketch="http://www.bohemiancoding.com/sketch/ns">
    <!-- Generator: Sketch 3.4.2 (15855) - http://www.bohemiancoding.com/sketch -->
    <title>数人云-白色</title>
    <desc>Created with Sketch.</desc>
    <defs></defs>
    <g id="Page-1" stroke="none" stroke-width="1" fill="none" fill-rule="evenodd" sketch:type="MSPage">
        <g id="数人云-白色" sketch:type="MSLayerGroup" fill="#FFFFFF">
            <path d="M14.6,5.3 C14.6,2.7 12.5,0.7 10,0.7 C8.5,0.7 7.1,1.4 6.3,2.5 C5.9,2.3 5.5,2.1 5,2.1 C3.5,2.1 2.4,3.3 2.4,4.7 C2.4,5 2.5,5.3 2.5,5.6 C1.2,6.1 0.3,7.3 0.3,8.8 C0.3,10.7 1.8,12.2 3.7,12.2 L3.8,12.2 L6,12.2 L6,10.6 C4.9,9.8 4.1,8.4 4.1,6.9 C4.1,5.8 4.5,4.8 5.2,4 C5.5,3.7 5.9,3.6 6.3,3.9 C6.6,4.2 6.7,4.7 6.4,5 C5.9,5.5 5.7,6.2 5.7,7 C5.7,8.7 7.1,10 8.7,10 C10.4,10 11.7,8.6 11.7,7 C11.7,6.3 11.4,5.6 11,5 C10.7,4.7 10.8,4.2 11.1,3.9 C11.4,3.6 11.9,3.7 12.2,4 C12.9,4.8 13.3,5.9 13.3,6.9 C13.3,8.4 12.6,9.7 11.4,10.6 L11.4,12.2 L13.4,12.2 C15.2,12.1 16.7,10.6 16.7,8.8 C16.7,7.4 15.8,6.2 14.6,5.7 L14.6,5.3 Z M8.7,8.9 C7.7,8.9 6.8,8.1 6.8,7 C6.8,6 7.6,5.1 8.7,5.1 C9.8,5.1 10.6,6 10.6,7 C10.6,8.1 9.7,8.9 8.7,8.9 L8.7,8.9 Z" id="Shape" sketch:type="MSShapeGroup"></path>
            <g id="Group" transform="translate(17.000000, 1.000000)" sketch:type="MSShapeGroup">
                <g transform="translate(0.000000, 9.000000)" id="Shape">
                    <path d="M1.2,2 C1.2,2 1.2,2.1 1.2,2 C1.3,2.1 1.4,2.1 1.4,2.1 L1.5,2.1 L1.6,2.1 L1.7,2.1 C1.7,2.1 1.8,2.1 1.8,2 L1.8,1.9 C1.8,1.8 1.8,1.8 1.7,1.8 C1.7,1.8 1.6,1.7 1.5,1.7 C1.4,1.7 1.3,1.7 1.3,1.6 C1.2,1.6 1.1,1.6 1.1,1.5 C1,1.5 1,1.4 0.9,1.4 C0.9,1.3 0.8,1.3 0.8,1.2 C0.8,1.1 0.8,1.1 0.9,1 C0.9,0.9 1,0.9 1,0.9 C1,0.9 1.1,0.8 1.2,0.8 L1.4,0.8 L1.6,0.8 C1.7,0.8 1.7,0.8 1.8,0.9 C1.9,0.9 1.9,1 1.9,1 C1.9,1.1 2,1.1 2,1.2 L1.8,1.2 L1.8,1.1 C1.8,1.1 1.8,1 1.7,1 L1.6,1 L1.5,1 L1.4,1 L1.3,1 C1.3,1 1.2,1 1.2,1.1 L1.2,1.2 L1.2,1.3 L1.3,1.4 L1.5,1.4 L1.7,1.4 C1.8,1.4 1.8,1.4 1.9,1.5 C2,1.5 2,1.5 2.1,1.6 L2.2,1.7 L2.2,1.9 C2.2,2 2.2,2.1 2.1,2.1 C2.1,2.2 2,2.2 2,2.2 C1.9,2.2 1.9,2.3 1.8,2.3 L1.6,2.3 L1.4,2.3 C1.3,2.3 1.3,2.3 1.2,2.2 C1.1,2.2 1.1,2.1 1.1,2 C1.1,1.9 1,1.9 1,1.8 L1.3,1.8 C1.1,1.9 1.1,2 1.2,2 L1.2,2 Z"></path>
                    <path d="M3.1,0.2 L3.1,1 L3.1,1 C3.1,1 3.1,0.9 3.2,0.9 L3.3,0.8 L3.4,0.8 L3.5,0.8 L3.8,0.8 C3.9,0.8 3.9,0.9 4,0.9 C4,0.9 4.1,1 4.1,1.1 L4.1,1.3 L4.1,2.3 L3.8,2.3 L3.8,1.3 C3.8,1.2 3.8,1.1 3.7,1.1 C3.7,1 3.6,1 3.5,1 L3.3,1 C3.2,1 3.2,1.1 3.2,1.1 C3.2,1.1 3.1,1.2 3.1,1.3 L3.1,1.5 L3.1,2.4 L2.9,2.4 L2.9,0.3 L3.1,0.2 L3.1,0.2 L3.1,0.2 Z"></path>
                    <path d="M5.9,2.3 L5.9,2.1 L5.9,2.1 C5.8,2.2 5.8,2.3 5.7,2.3 C5.6,2.3 5.5,2.4 5.4,2.4 L5.1,2.4 C5,2.4 5,2.3 4.9,2.3 C4.9,2.3 4.8,2.2 4.8,2.1 L4.8,1.9 L4.8,0.9 L5.1,0.9 L5.1,1.9 C5.1,2 5.1,2.1 5.2,2.1 C5.3,2.2 5.3,2.2 5.4,2.2 L5.6,2.2 C5.7,2.2 5.7,2.1 5.7,2.1 C5.7,2.1 5.8,2 5.8,1.9 L5.8,1.7 L5.8,0.8 L6.1,0.8 L6.1,2.3 L5.9,2.3 L5.9,2.3 L5.9,2.3 L5.9,2.3 Z"></path>
                    <path d="M7.1,0.8 L7.1,1.1 L7.1,1.1 C7.2,1 7.2,0.9 7.3,0.8 C7.4,0.7 7.5,0.7 7.6,0.7 L7.6,1 L7.3,1 C7.2,1 7.2,1.1 7.1,1.1 C7.1,1.2 7,1.2 7,1.3 L7,1.6 L7,2.3 L6.7,2.3 L6.7,0.8 L7.1,0.8 L7.1,0.8 L7.1,0.8 Z"></path>
                    <path d="M9.3,2.2 C9.2,2.3 9,2.3 8.9,2.3 C8.8,2.3 8.7,2.3 8.6,2.2 C8.5,2.2 8.4,2.1 8.4,2 C8.3,1.9 8.3,1.8 8.3,1.7 C8.3,1.6 8.3,1.5 8.2,1.4 C8.2,1.3 8.2,1.2 8.3,1.1 C8.3,1 8.4,0.9 8.4,0.8 C8.5,0.7 8.5,0.7 8.6,0.6 C8.7,0.6 8.8,0.5 8.9,0.5 C9,0.5 9.1,0.5 9.2,0.6 C9.3,0.7 9.4,0.7 9.4,0.8 C9.5,0.9 9.5,1 9.5,1.1 L9.5,1.4 L8.4,1.4 L8.4,1.6 C8.4,1.7 8.4,1.7 8.5,1.8 C8.5,1.8 8.6,1.9 8.7,1.9 L8.9,1.9 C9,1.9 9.1,1.9 9.2,1.8 C9.3,1.8 9.3,1.7 9.3,1.6 L9.5,1.6 C9.5,2 9.4,2.1 9.3,2.2 L9.3,2.2 Z M9.3,1.3 C9.3,1.2 9.2,1.2 9.2,1.2 L9.1,1.1 L8.9,1.1 L8.7,1.1 C8.6,1.1 8.6,1.2 8.6,1.2 L8.5,1.3 L8.5,1.5 L9.4,1.5 C9.3,1.4 9.3,1.3 9.3,1.3 L9.3,1.3 Z"></path>
                    <path d="M10.5,0.8 L10.5,1 L10.5,1 C10.6,0.8 10.8,0.7 11,0.7 L11.3,0.7 C11.4,0.7 11.4,0.8 11.5,0.8 C11.5,0.8 11.6,0.9 11.6,1 L11.6,1.2 L11.6,2.2 L11.3,2.2 L11.3,1.2 C11.3,1.1 11.3,1 11.2,1 L10.9,1 L10.7,1 C10.6,1 10.6,1.1 10.6,1.1 C10.6,1.1 10.5,1.2 10.5,1.3 L10.5,1.5 L10.5,2.4 L10.3,2.4 L10.3,0.9 C10.2,0.8 10.5,0.8 10.5,0.8 L10.5,0.8 Z"></path>
                    <path d="M12.9,2.5 C12.9,2.6 12.8,2.6 12.8,2.7 C12.8,2.8 12.7,2.8 12.7,2.8 L12.6,2.9 L12.5,2.9 L12.4,2.9 L12.3,2.9 L12.3,2.7 L12.4,2.7 L12.5,2.7 L12.6,2.7 L12.7,2.6 L12.8,2.3 L12.2,0.8 L12.5,0.8 L12.9,2 L12.9,2 L13.3,0.8 L13.6,0.8 L12.9,2.5 L12.9,2.5 Z"></path>
                    <path d="M15.2,2.3 L15.2,2.1 L15.2,2.1 C15.1,2.2 15.1,2.3 15,2.3 C14.9,2.3 14.8,2.4 14.7,2.4 L14.4,2.4 C14.3,2.4 14.3,2.3 14.2,2.3 C14.2,2.3 14.1,2.2 14.1,2.1 L14.1,1.9 L14.1,0.9 L14.4,0.9 L14.4,1.9 C14.4,2 14.4,2.1 14.5,2.1 C14.6,2.2 14.6,2.2 14.7,2.2 L14.9,2.2 C15,2.2 15,2.1 15,2.1 C15,2.1 15.1,2 15.1,1.9 L15.1,1.7 L15.1,0.8 L15.4,0.8 L15.4,2.3 L15.2,2.3 L15.2,2.3 L15.2,2.3 L15.2,2.3 Z"></path>
                    <path d="M16.4,0.8 L16.4,1 L16.4,1 C16.5,0.8 16.7,0.7 16.9,0.7 L17.2,0.7 C17.3,0.7 17.3,0.8 17.4,0.8 C17.4,0.8 17.5,0.9 17.5,1 L17.5,1.2 L17.5,2.2 L17.2,2.2 L17.2,1.2 C17.2,1.1 17.2,1 17.1,1 L16.9,1 L16.7,1 C16.6,1 16.6,1.1 16.6,1.1 C16.6,1.1 16.5,1.2 16.5,1.3 L16.5,1.5 L16.5,2.4 L16.2,2.4 L16.2,0.9 C16.1,0.8 16.4,0.8 16.4,0.8 L16.4,0.8 Z"></path>
                    <path d="M18.6,2 L18.6,2.3 L18.3,2.3 L18.3,2 L18.6,2 L18.6,2 Z"></path>
                    <path d="M20.3,1.1 C20.3,1 20.2,1 20.1,1 C20,1 19.9,1 19.9,1.1 C19.8,1.1 19.8,1.2 19.8,1.2 C19.8,1.3 19.7,1.3 19.7,1.4 L19.7,1.6 L19.7,1.8 C19.7,1.9 19.7,1.9 19.8,2 C19.8,2.1 19.9,2.1 19.9,2.1 L20.1,2.1 C20.2,2.1 20.3,2.1 20.4,2 C20.5,1.9 20.5,1.8 20.5,1.7 L20.8,1.7 C20.8,1.9 20.7,2 20.6,2.1 C20.5,2.2 20.3,2.3 20.1,2.3 C20,2.3 19.9,2.3 19.8,2.2 C19.7,2.2 19.6,2.1 19.6,2 C19.5,1.9 19.5,1.8 19.5,1.8 L19.5,1.5 L19.5,1.2 C19.5,1.1 19.6,1 19.6,0.9 C19.7,0.8 19.7,0.8 19.8,0.7 C19.9,0.7 20,0.6 20.1,0.6 L20.3,0.6 C20.4,0.6 20.4,0.7 20.5,0.7 C20.6,0.7 20.6,0.8 20.6,0.9 C20.6,1 20.7,1 20.7,1.1 L20.5,1.1 C20.4,1.2 20.4,1.1 20.3,1.1 L20.3,1.1 Z"></path>
                    <path d="M21.4,1.3 C21.4,1.2 21.5,1.1 21.5,1 C21.6,0.9 21.6,0.9 21.7,0.8 C21.8,0.8 21.9,0.7 22,0.7 C22.1,0.7 22.2,0.7 22.3,0.8 C22.4,0.8 22.5,0.9 22.5,1 C22.6,1.1 22.6,1.2 22.6,1.3 L22.6,1.6 L22.6,1.9 C22.6,2 22.5,2.1 22.5,2.2 C22.4,2.3 22.4,2.3 22.3,2.4 C22.2,2.4 22.1,2.5 22,2.5 C21.9,2.5 21.8,2.5 21.7,2.4 C21.6,2.4 21.5,2.3 21.5,2.2 C21.5,2.1 21.4,2 21.4,1.9 L21.4,1.6 C21.3,1.5 21.4,1.4 21.4,1.3 L21.4,1.3 Z M21.6,1.8 C21.6,1.9 21.7,1.9 21.7,2 C21.7,2 21.8,2.1 21.9,2.1 L22.1,2.1 L22.3,2.1 C22.4,2.1 22.4,2 22.5,2 C22.5,1.9 22.6,1.9 22.6,1.8 L22.6,1.6 L22.6,1.4 C22.6,1.3 22.5,1.3 22.5,1.2 C22.5,1.2 22.4,1.1 22.3,1.1 L22.1,1.1 L21.9,1.1 C21.8,1.1 21.8,1.2 21.7,1.2 C21.7,1.2 21.6,1.3 21.6,1.4 L21.6,1.6 L21.6,1.8 L21.6,1.8 Z"></path>
                    <path d="M23.7,0.8 L23.7,1 L23.7,1 C23.8,0.8 24,0.7 24.2,0.7 C24.3,0.7 24.4,0.7 24.5,0.8 C24.6,0.8 24.6,0.9 24.7,1 C24.8,0.9 24.8,0.9 24.9,0.8 C25,0.8 25.1,0.7 25.2,0.7 L25.4,0.7 C25.5,0.7 25.5,0.7 25.6,0.8 L25.7,0.9 L25.7,1.1 L25.7,2.2 L25.4,2.2 L25.4,1.2 L25.4,1.1 L25.4,1 L25.3,0.9 L25.2,0.9 C25.1,0.9 25,0.9 24.9,1 C24.8,1.1 24.8,1.2 24.8,1.3 L24.8,2.2 L24.5,2.2 L24.5,1.2 L24.5,1.1 L24.5,1 L24.4,0.9 L24.3,0.9 L24.1,0.9 C24,0.9 24,1 24,1 L23.9,1.1 L23.9,1.2 L23.9,2.1 L23.6,2.1 L23.6,0.6 L23.7,0.8 L23.7,0.8 L23.7,0.8 Z"></path>
                </g>
                <path d="M10.5,7.3 L12.5,0.9 L14,0.9 L13.5,2.7 L14.7,2.7 L15.9,7.3 C16,7.5 16.1,7.6 16.4,7.6 L17.2,7.6 L17.2,8.6 L15.5,8.6 C15,8.6 14.9,8.4 14.8,8 L13.5,3.4 L13.3,3.4 L11.7,8.2 C11.6,8.5 11.4,8.6 11.1,8.6 L9.4,8.6 L9.4,7.5 L10.2,7.5 C10.3,7.6 10.4,7.6 10.5,7.3 L10.5,7.3 Z" id="Shape"></path>
                <g id="Shape">
                    <path d="M6.2,3.2 L6.8,4.8 L7.4,2.8 L8.5,2.8 L7.3,6.6 L7.8,7.8 C7.8,7.9 7.9,8 8.1,8 L8.6,8 L8.6,8.8 L7.5,8.8 C7.2,8.8 7.1,8.7 7,8.5 L6.8,8 L6.6,8.5 C6.5,8.7 6.4,8.8 6.1,8.8 L5,8.8 L5,8 L5.5,8 C5.5,8 5.7,8 5.7,7.9 L6.2,6.4 L5.1,3.2 L6.2,3.2 L6.2,3.2 L6.2,3.2 L6.2,3.2 Z"></path>
                    <path d="M5.1,2.9 L5.1,1.9 L5.3,1.9 C5.5,1.9 5.5,1.8 5.6,1.6 L5.7,0.9 L6.8,0.9 L6.8,1.4 L8.8,1.4 L8.8,2.4 L6.7,2.4 L6.6,2.6 C6.5,2.8 6.3,2.9 6,2.9 L5.1,2.9 L5.1,2.9 L5.1,2.9 Z"></path>
                    <path d="M3.3,5 L2.3,5 L2.3,3 L0.9,3 L0.9,2 L1.1,2 L1.1,1.1 L1.9,1.1 L1.9,2 L2.3,2 L2.3,0.9 L3.3,0.9 L3.3,5 Z"></path>
                    <path d="M2.3,0.9 L3.3,0.9 L3.3,2 L3.7,2 L3.7,1.1 L4.5,1.1 L4.5,2 L4.8,2 L4.8,3 L3.3,3 L3.3,5 L2.3,5 L2.3,0.9 Z"></path>
                    <path d="M0.9,4.8 L0.9,4.1 C1.1,4.1 1.2,4 1.2,3.8 L1.3,3.2 L2.2,3.2 L2,4.4 C1.9,4.7 1.8,4.8 1.5,4.8 L0.9,4.8 L0.9,4.8 L0.9,4.8 Z"></path>
                    <path d="M4.8,4.8 L4.3,4.8 C4,4.8 3.7,4.7 3.7,4.3 L3.5,3.2 L4.4,3.2 L4.5,3.8 C4.6,4 4.6,4 4.9,4 L4.9,4.8 L4.8,4.8 Z"></path>
                    <path d="M4.5,6.4 L4.8,6.4 L4.8,5.5 L4.5,5.5 L4.5,5.2 L3.6,5.2 L3.6,5.5 L2,5.5 L2,5.2 L1,5.2 L1,5.5 L0.8,5.5 L0.8,6.4 L1,6.4 L1,7.1 L2.1,7.8 C2.1,7.8 1.9,7.9 1.7,7.9 L0.9,7.9 L0.9,8.6 L2,8.6 C2.2,8.6 2.3,8.6 2.5,8.5 L2.9,8.2 L3.4,8.5 C3.5,8.6 3.6,8.6 3.8,8.6 L4.9,8.6 L4.9,7.9 L4.3,7.9 C4,7.9 3.8,7.7 3.8,7.7 L4.6,7 L4.5,6.4 L4.5,6.4 L4.5,6.4 L4.5,6.4 Z M3.6,6.7 L2.9,7.2 L2,6.6 L2,6.3 L3.6,6.3 L3.6,6.7 L3.6,6.7 L3.6,6.7 Z"></path>
                </g>
                <g transform="translate(17.000000, 0.000000)">
                    <path d="M0.8,7.9 L2,4.9 L0.8,4.9 L0.8,3.8 L8.5,3.8 L8.5,4.9 L3.2,4.9 L2.2,7.6 L7.1,7.6 C7.2,7.6 7.3,7.6 7.3,7.4 L7.3,6.2 L8.5,6.2 L8.5,7.9 C8.5,8.5 8.2,8.7 7.7,8.7 L0.8,8.7 L0.8,7.9 L0.8,7.9 L0.8,7.9 Z" id="Shape"></path>
                    <rect id="Rectangle-path" x="1" y="0.9" width="7.6" height="1.1"></rect>
                </g>
            </g>
        </g>
    </g>
</svg>