<?xml version="1.0" encoding="utf-8"?>
<!-- Generator: Adobe Illustrator 18.0.0, SVG Export Plug-In . SVG Version: 6.00 Build 0)  -->
<!DOCTYPE svg PUBLIC "-//W3C//DTD SVG 1.1//EN" "http://www.w3.org/Graphics/SVG/1.1/DTD/svg11.dtd">
<svg version="1.1" id="图层_1" xmlns="http://www.w3.org/2000/svg" xmlns:xlink="http://www.w3.org/1999/xlink" x="0px" y="0px"
	 viewBox="0 0 401 92" enable-background="new 0 0 401 92" xml:space="preserve">
<g>
	<g>
		<path fill="#CCDDE7" d="M133.7,77.8h-16.2l-4.9,7.3c-0.9,1.3-2,2-3.4,2c-1.1,0-2.1-0.4-3-1.2c-0.9-0.8-1.3-1.8-1.3-2.9
			c0-0.8,0.2-1.5,0.7-2.3l14.5-23.4c1.9-3,3.7-4.5,5.4-4.5c1.2,0,2.3,0.5,3.3,1.4c0.6,0.6,1.4,1.6,2.3,3.1l14.4,23.4
			c0.4,0.7,0.7,1.5,0.7,2.3c0,1.2-0.4,2.1-1.3,2.9c-0.9,0.8-1.9,1.2-3,1.2c-1.4,0-2.5-0.6-3.4-1.9L133.7,77.8z M121.6,70.5h7.8
			l-3.9-6.3L121.6,70.5z"/>
		<path fill="#CCDDE7" d="M182.5,60.7h-12.4V83c0,1.3-0.4,2.3-1.2,3c-0.8,0.7-1.8,1.1-2.9,1.1c-1.1,0-2-0.4-2.9-1.1
			c-0.8-0.7-1.2-1.7-1.2-3V60.7h-12.5c-1.3,0-2.3-0.4-3.1-1.2c-0.7-0.8-1.1-1.8-1.1-2.9c0-1.1,0.4-2.1,1.1-2.9
			c0.7-0.8,1.8-1.2,3.1-1.2h33c1.3,0,2.3,0.4,3.1,1.2c0.7,0.8,1.1,1.8,1.1,2.9c0,1.1-0.4,2.1-1.1,2.9
			C184.8,60.3,183.8,60.7,182.5,60.7z"/>
		<path fill="#CCDDE7" d="M214.1,77.8h-16.2l-4.9,7.3c-0.9,1.3-2,2-3.4,2c-1.1,0-2.1-0.4-3-1.2c-0.9-0.8-1.3-1.8-1.3-2.9
			c0-0.8,0.2-1.5,0.7-2.3l14.5-23.4c1.9-3,3.7-4.5,5.4-4.5c1.2,0,2.3,0.5,3.3,1.4c0.6,0.6,1.4,1.6,2.3,3.1L226,80.8
			c0.4,0.7,0.7,1.5,0.7,2.3c0,1.2-0.4,2.1-1.3,2.9c-0.9,0.8-1.9,1.2-3,1.2c-1.4,0-2.5-0.6-3.4-1.9L214.1,77.8z M202,70.5h7.8
			l-3.9-6.3L202,70.5z"/>
		<path fill="#CCDDE7" d="M297.7,80.8c0,2-0.6,3.6-1.9,4.7c-1.3,1.1-2.8,1.7-4.5,1.7c-1.7,0-3.2-0.6-4.4-1.7
			c-1.3-1.1-1.9-2.7-1.9-4.7V61.1l-13.9,22.1c-1.6,2.6-3.5,3.9-5.5,3.9c-2,0-3.8-1.3-5.4-3.9l-13.9-22.1v19.7c0,2-0.6,3.6-1.9,4.7
			c-1.3,1.1-2.8,1.7-4.5,1.7c-1.7,0-3.2-0.6-4.4-1.7c-1.3-1.1-1.9-2.7-1.9-4.7v-42c0-2.3,0.6-4.1,1.7-5.4c1.1-1.3,2.5-2,4-2
			c2.4,0,4.4,1.4,6,4.1l20.2,32.3L286,35.4c1.6-2.7,3.6-4.1,5.9-4.1c1.6,0,2.9,0.7,4,2c1.1,1.3,1.7,3.1,1.7,5.4V80.8z"/>
		<path fill="#CCDDE7" d="M333.4,77.8h-16.2l-4.9,7.3c-0.9,1.3-2,2-3.4,2c-1.1,0-2.1-0.4-3-1.2c-0.9-0.8-1.3-1.8-1.3-2.9
			c0-0.8,0.2-1.5,0.7-2.3l14.5-23.4c1.9-3,3.7-4.5,5.4-4.5c1.2,0,2.3,0.5,3.3,1.4c0.6,0.6,1.4,1.6,2.3,3.1l14.4,23.4
			c0.4,0.7,0.7,1.5,0.7,2.3c0,1.2-0.4,2.1-1.3,2.9c-0.9,0.8-1.9,1.2-3,1.2c-1.4,0-2.5-0.6-3.4-1.9L333.4,77.8z M321.3,70.5h7.8
			l-3.9-6.3L321.3,70.5z"/>
		<path fill="#CCDDE7" d="M394.1,82.5c0,3.1-1.1,4.6-3.3,4.6c-1.1,0-2.2-0.4-3.3-1.3l-26.4-21.1v17.8c0,1.3-0.4,2.3-1.2,3
			c-0.8,0.7-1.8,1.1-2.9,1.1c-1.1,0-2.1-0.4-2.9-1.1c-0.8-0.7-1.2-1.7-1.2-3V56.1c0-3.1,1.1-4.6,3.4-4.6c1.1,0,2.2,0.5,3.4,1.4
			l26.3,21.2V56.1c0-1.3,0.4-2.3,1.2-3c0.8-0.7,1.8-1.1,2.9-1.1c1.1,0,2.1,0.4,2.9,1.1c0.8,0.7,1.2,1.7,1.2,3V82.5z"/>
	</g>
	<g>
		<path fill="#2B93D1" d="M18.3,18.1c19.2,0,35,5.5,47.1,16.2c0,0,0,0,0,0c0,0,0,0,0,0C75.6,43.5,81.7,55,83.9,68.9
			c0.3,2,0.5,4.1,0.7,6.2c0.1,1.8,0.2,3.7,0.2,5.5c0,3.6,3,6.5,6.6,6.5l0,0c3.7,0,6.6-3,6.6-6.7c0-28.4-12.6-46-23.7-55.9
			C59.6,11.5,40.8,4.9,18.3,4.9H5.2v13.2H18.3z"/>
		<path fill="#2B93D1" d="M56.7,44.2c-3.6-3.2-7.7-5.8-12.2-7.9c-2.2-1-4.6-1.9-7.1-2.6c-1.6-0.5-3.3-0.9-5.1-1.2
			c-4.4-0.8-9-1.3-14-1.3H5.2v55.8h61.4c2.7,0,4.9-2.1,5-4.8C71.9,66.1,67,53.5,56.7,44.2z M18.3,73.9V44.7v0h4.8
			c2,0,3.9,0.2,5.8,0.5c3.8,0.6,7.5,1.9,11.1,3.9c1.8,1,3.5,2.1,5.3,3.4c3.6,2.8,6.5,5.9,8.8,9.4c0.7,1,1.2,2,1.7,3
			c0.5,1,0.9,2,1.3,3c0.7,2,1.1,4,1.1,6H18.3z"/>
	</g>
</g>
</svg>
